<svg id="Layer_1" data-name="Layer 1" xmlns="http://www.w3.org/2000/svg" viewBox="0 0 34.56 36"><title>icon-home-apple</title><path d="M21.74,8.72a40.12,40.12,0,0,0-4.31.37c-.27-3-.9-6.28-2.3-8.52a1.2,1.2,0,1,0-2,1.27A17.74,17.74,0,0,1,15,9.08a38.74,38.74,0,0,0-4.21-.36A10.08,10.08,0,0,0,1.58,22.88l4.53,8.88A7,7,0,0,0,12.52,36c1.43,0,2.4-.55,3.75-.55S18.6,36,20,36a7,7,0,0,0,6.41-4.24L31,22.88A10.08,10.08,0,0,0,21.74,8.72ZM7,15a5.42,5.42,0,0,0-1.6,3.85.85.85,0,0,1-1.7,0,7.09,7.09,0,0,1,2.09-5.05.86.86,0,0,1,1.21,0A.85.85,0,0,1,7,15Z" transform="translate(-0.72 0)" style="fill:#fff"/><path d="M25.5,1.4A5.4,5.4,0,0,0,21,3.78C20.17,5,18.4,7.7,18.4,7.7h9.79a5.38,5.38,0,0,0,4.54-2.38c.78-1.22,2.55-3.92,2.55-3.92Z" transform="translate(-0.72 0)" style="fill:#fff"/></svg>