<svg xmlns="http://www.w3.org/2000/svg" xmlns:xlink="http://www.w3.org/1999/xlink" version="1.1" x="0" y="0" viewBox="0 0 44.9 53.1" xml:space="preserve" enable-background="new 0 0 44.9 53.1"><style type="text/css">
	.st0{fill:#D2202E;}
	.st1{clip-path:url(#SVGID_2_);fill:#D2202E;}
	.st2{display:none;}
	.st3{display:inline;}
	.st4{fill:#FFFFFF;}
	.st5{display:inline;fill:#FFFFFF;}
	.st6{font-family:'MyriadPro-Bold';}
	.st7{font-size:36px;}
	.st8{font-size:27.4034px;}
</style><g id="Layer_2"><path class="st0" d="M36 42.8c-4.4 5.4-10.8 3.9-10.8 3.9V15.8c0 0 7.4-1.4 12 2S40.4 37.4 36 42.8z"/></g><g id="Layer_1"><defs><rect id="SVGID_1_" width="44.9" height="52"/></defs><clipPath id="SVGID_2_"><use xlink:href="#SVGID_1_" overflow="visible"/></clipPath><path class="st1" d="M22.4 15.9C18.2 11.5 0 8.8 0 29.3 0 42 16.1 56 22.4 49.6h0C28.7 56 44.8 42 44.8 29.3 44.8 8.8 26.6 11.5 22.4 15.9L22.4 15.9zM38.5 34.1c-1.2 4.6-5.2 9-9.9 12 4.9-5.8 7.9-15.7 5-23.3 -0.9-2.3-1.9-4.2-3-5.8C36.4 18.9 41.1 23.9 38.5 34.1L38.5 34.1zM20.8 10.2c0.7-0.2 1.3-0.4 1.9-0.6 -0.2 1-0.4 2.1-0.4 3.2h1.1c0.9-4.3 4.4-9.4 9.1-9.4C32.5 1 30.9 0 29.1 0c-1.7 0.9-3.2 2.4-4.5 4.6 -0.7 1.2-1.3 2.8-1.8 4.6 -0.1-0.5-0.2-1-0.4-1.5 -2-5.6-8.9-8.8-15.4-7.2C6.4 0.6 5.7 0.8 5 1.1 5.1 1.7 5.2 2.3 5.4 3 7.4 8.5 14.3 11.8 20.8 10.2L20.8 10.2zM20.8 10.2"/></g><g id="_x31__x2F_2" class="st2"><g class="st3"><path class="st4" d="M11.8 34.6V23.9h-0.1l-2.8 1.3 -0.6-3 4-1.7H16v14H11.8zM12.8 44.5l13.3-24.2h3L15.8 44.5H12.8zM24.9 42.1l2.2-2c2.7-2.4 4.2-3.6 4.2-5.2 0-1-0.8-1.7-2.1-1.7 -1.2 0-2.3 0.5-3.1 1L25 31.5c1.2-0.9 3.1-1.5 5.3-1.5 3.6 0 5.5 1.9 5.5 4.4 0 2.6-2 4.2-4.1 6l-0.9 0.7V41H36v3.1H24.9V42.1z"/></g></g><g id="_x31_" class="st2"><text transform="matrix(1 0 0 1 12.4503 44.125)" class="st5 st6 st7">1</text></g><g id="_x31___1_x2F_2"><path class="st4" d="M8.8 24.7L8.8 24.7l-3.5 1.6 -0.7-3.1L9.4 21h3.5v17.8h-4V24.7z"/><path class="st4" d="M20.8 31.5v-8.1h-0.1l-2.2 1 -0.4-2.2 3.1-1.3H24v10.7H20.8zM21.6 39.1l10.1-18.4H34L23.9 39.1H21.6zM30.8 37.2l1.7-1.5c2.1-1.8 3.2-2.8 3.2-3.9 0-0.8-0.6-1.3-1.6-1.3 -0.9 0-1.8 0.4-2.4 0.8l-0.8-2.1c0.9-0.7 2.4-1.2 4-1.2 2.7 0 4.2 1.5 4.2 3.3 0 1.9-1.5 3.2-3.1 4.5l-0.7 0.5v0.1h4v2.4h-8.4V37.2z"/></g><g id="_x32_" class="st2"><text transform="matrix(1 0 0 1 11.4503 44.125)" class="st5 st6 st7">2</text></g><g id="_x32___1_x2F_2" class="st2"><text transform="matrix(1 0 0 1 3.3389 38.7637)" class="st5 st6 st8">21/2</text></g><g id="_x33_" class="st2"><text transform="matrix(1 0 0 1 12.4503 44.125)" class="st5 st6 st7">3</text></g><g id="_x33___1_x2F_2" class="st2"><text transform="matrix(1 0 0 1 3.3389 38.7637)" class="st5 st6 st8">31/2</text></g></svg>