<?xml version="1.0" encoding="UTF-8"?>
<svg viewBox="0 0 150 129.95" xmlns="http://www.w3.org/2000/svg">
<g data-name="Layer 2">
<g data-name="Layer 1">
<g data-name="Layer 2">
<path d="m133.15 129.19a12.88 12.88 0 0 0 15.7-9.27c1.77-6.9-2.94-15.68-11.43-23.77-0.06 6.19-11.76 10.45-13.53 17.35a12.87 12.87 0 0 0 9.26 15.69z" fill="#f9ce65"/>
</g>
<g data-name="Layer 3">
<path d="m143.27 116.43c0 0.49 2.3 2.81 3.79-0.37 1.33-3.18-5.26-12.65-5.51-12.76 0 0 1.36 1.9 1.72 13.13z" fill="#fff" opacity=".47" style="isolation:isolate"/>
</g>
<path d="M52.79,25.89c1.78-.51,3.3-1,4.82-1.53a41.66,41.66,0,0,0-1,8.13h2.79C61.67,21.57,70.56,8.63,82.48,8.63,82.48,2.54,78.42,0,73.85,0c-4.31,2.28-8.12,6.09-11.42,11.67a50.9,50.9,0,0,0-4.56,11.68,21.51,21.51,0,0,0-1-3.81C51.77,5.33,34.26-2.79,17.77,1.27a22.49,22.49,0,0,0-5.08,1.52,39.89,39.89,0,0,0,1,4.82C18.78,21.57,36.29,30,52.79,25.89Z" fill="#d2202e"/>
<path d="M148.79,89.76h-.46V77.32A17.73,17.73,0,0,0,130.6,59.59h-.11l-1-7.74h7.13a1.92,1.92,0,0,0,1.91-1.91V48.6a1.92,1.92,0,0,0-1.91-1.91H116.78a1.91,1.91,0,0,0-1.91,1.91v1.34a1.91,1.91,0,0,0,1.91,1.91h7.12l-1,7.74H112.2c-8-35.73-45.83-29.21-55.35-19.24C46.19,29.19,0,22.33,0,74.36c0,32.23,40.86,67.77,56.85,51.52,15.35,15.6,53.61-16.52,56.65-47.64h12.55a3.63,3.63,0,0,1,3.62,3.63v7.89H129A1.21,1.21,0,0,0,127.74,91v1.55A1.21,1.21,0,0,0,129,93.73h19.84A1.21,1.21,0,0,0,150,92.52V91A1.21,1.21,0,0,0,148.79,89.76Z" fill="#d2202e"/>
</g>
</g>
</svg>
