<svg xmlns="http://www.w3.org/2000/svg" xmlns:xlink="http://www.w3.org/1999/xlink" version="1.1" x="0" y="0" viewBox="0 0 44.9 53.1" enable-background="new 0 0 44.9 53.1" xml:space="preserve"><g id="Layer_2"><path fill="#D2202E" d="M36 42.8c-4.4 5.4-10.8 3.9-10.8 3.9V15.8c0 0 7.4-1.4 12 2S40.4 37.4 36 42.8z"/></g><g id="Layer_1"><defs><rect id="SVGID_1_" width="44.9" height="52"/></defs><clipPath id="SVGID_2_"><use xlink:href="#SVGID_1_" overflow="visible"/></clipPath><path clip-path="url(#SVGID_2_)" fill="#D2202E" d="M22.4 15.9C18.2 11.5 0 8.8 0 29.3 0 42 16.1 56 22.4 49.6h0C28.7 56 44.8 42 44.8 29.3 44.8 8.8 26.6 11.5 22.4 15.9L22.4 15.9zM38.5 34.1c-1.2 4.6-5.2 9-9.9 12 4.9-5.8 7.9-15.7 5-23.3 -0.9-2.3-1.9-4.2-3-5.8C36.4 18.9 41.1 23.9 38.5 34.1L38.5 34.1zM20.8 10.2c0.7-0.2 1.3-0.4 1.9-0.6 -0.2 1-0.4 2.1-0.4 3.2h1.1c0.9-4.3 4.4-9.4 9.1-9.4C32.5 1 30.9 0 29.1 0c-1.7 0.9-3.2 2.4-4.5 4.6 -0.7 1.2-1.3 2.8-1.8 4.6 -0.1-0.5-0.2-1-0.4-1.5 -2-5.6-8.9-8.8-15.4-7.2C6.4 0.6 5.7 0.8 5 1.1 5.1 1.7 5.2 2.3 5.4 3 7.4 8.5 14.3 11.8 20.8 10.2L20.8 10.2zM20.8 10.2"/></g><g id="_x31_" display="none"><text transform="matrix(1 0 0 1 12.4503 44.125)" display="inline" fill="#FFFFFF" font-family="'MyriadPro-Bold'" font-size="36">1</text></g><g id="_x31__x2F_2" display="none"><text transform="matrix(1 0 0 1 7.4821 44.125)" display="inline" fill="#FFFFFF" font-family="'MyriadPro-Bold'" font-size="36">1/2</text></g><g id="_x31___1_x2F_2" display="none"><text transform="matrix(1 0 0 1 2.3389 38.7637)" display="inline" fill="#FFFFFF" font-family="'MyriadPro-Bold'" font-size="27.4">11/2</text></g><g id="_x32_" display="none"><text transform="matrix(1 0 0 1 11.4503 44.125)" display="inline" fill="#FFFFFF" font-family="'MyriadPro-Bold'" font-size="36">2</text></g><g id="_x32___1_x2F_2" display="none"><text transform="matrix(1 0 0 1 3.3389 38.7637)" display="inline" fill="#FFFFFF" font-family="'MyriadPro-Bold'" font-size="27.4">21/2</text></g><g id="_x33_" display="none"><text transform="matrix(1 0 0 1 12.4503 44.125)" display="inline" fill="#FFFFFF" font-family="'MyriadPro-Bold'" font-size="36">3</text></g><g id="_x33___1_x2F_2" display="none"><text transform="matrix(1 0 0 1 3.3389 38.7637)" display="inline" fill="#FFFFFF" font-family="'MyriadPro-Bold'" font-size="27.4">31/2</text></g></svg>