<svg xmlns="http://www.w3.org/2000/svg" xmlns:xlink="http://www.w3.org/1999/xlink" version="1.1" x="0" y="0" viewBox="0 0 150 150" xml:space="preserve" enable-background="new 0 0 150 150"><style type="text/css">
	.st0{fill:#F68D2A;stroke:#FFFFFF;stroke-width:0.25;stroke-miterlimit:10;}
	.st1{display:none;}
	.st2{display:inline;fill:#00A14B;}
	.st3{fill:#FFFFFF;}
	.st4{display:inline;fill:#FFFFFF;}
	.st5{font-family:'Impact';}
	.st6{font-size:41.3619px;}
</style><g id="Layer_1"><circle class="st0" cx="75" cy="75" r="75"/></g><g id="Layer_1_copy" class="st1"/><g id="Layer_4" class="st1"/><g id="Layer_5" class="st1"/><g id="Layer_3" class="st1"><line class="st2" x1="0" y1="150" x2="150" y2="0"/><line class="st2" x1="0" y1="0" x2="150" y2="150"/></g><g id="Layer_6"><path class="st3" d="M112.2 112.9c-9.7 9.7-23.1 15.7-37.9 15.7 -29.6 0-53.6-24-53.6-53.6s24-53.6 53.6-53.6c14.8 0 28.2 6 37.9 15.7l11.9-11.9C111.3 12.5 93.8 4.6 74.3 4.6 35.5 4.6 3.9 36.1 3.9 75c0 38.9 31.5 70.4 70.4 70.4 19.4 0 37-7.9 49.8-20.6L112.2 112.9z"/></g><g id="Layer_7" class="st1"><text transform="matrix(1 0 0 1 29.4976 88.794)" class="st4 st5 st6">200%</text></g><g id="Layer_7_copy"><path class="st3" d="M48.5 83.2v5.6h-18l0-4.7c5.3-8.7 8.5-14.1 9.5-16.1s1.5-3.7 1.5-4.8c0-0.9-0.2-1.6-0.5-2 -0.3-0.4-0.8-0.7-1.4-0.7 -0.6 0-1.1 0.2-1.4 0.7 -0.3 0.5-0.5 1.4-0.5 2.9v3.1h-7.3V66c0-1.8 0.1-3.3 0.3-4.3 0.2-1.1 0.7-2.1 1.4-3.1 0.7-1 1.7-1.8 2.9-2.3s2.6-0.8 4.3-0.8c3.2 0 5.7 0.8 7.4 2.4 1.7 1.6 2.5 3.6 2.5 6.1 0 1.9-0.5 3.9-1.4 5.9s-3.7 6.5-8.3 13.3H48.5z"/><path class="st3" d="M71 67.2v10.9c0 2.5-0.1 4.3-0.4 5.4 -0.3 1.1-0.8 2.2-1.7 3.2 -0.8 1-1.9 1.7-3.1 2.1 -1.2 0.4-2.5 0.6-4 0.6 -2 0-3.6-0.2-4.9-0.7 -1.3-0.5-2.3-1.2-3.1-2.1s-1.3-2-1.6-3c-0.3-1.1-0.5-2.7-0.5-5V67.2c0-3 0.3-5.3 0.8-6.7 0.5-1.5 1.5-2.7 3.1-3.6 1.5-0.9 3.4-1.4 5.6-1.4 1.8 0 3.4 0.3 4.8 0.9s2.5 1.4 3.2 2.3c0.7 0.9 1.2 1.9 1.4 3C70.8 62.9 71 64.7 71 67.2zM62.8 64.4c0-1.7-0.1-2.8-0.3-3.3 -0.2-0.4-0.6-0.7-1.2-0.7 -0.6 0-1 0.2-1.2 0.7 -0.2 0.5-0.3 1.5-0.3 3.2v16c0 1.9 0.1 3 0.3 3.4 0.2 0.4 0.6 0.6 1.2 0.6s1-0.2 1.2-0.7c0.2-0.5 0.3-1.5 0.3-3.1V64.4z"/><path class="st3" d="M93.1 67.2v10.9c0 2.5-0.1 4.3-0.4 5.4s-0.8 2.2-1.7 3.2c-0.8 1-1.9 1.7-3.1 2.1s-2.5 0.6-4 0.6c-2 0-3.6-0.2-4.9-0.7 -1.3-0.5-2.3-1.2-3.1-2.1 -0.8-1-1.3-2-1.6-3 -0.3-1.1-0.5-2.7-0.5-5V67.2c0-3 0.3-5.3 0.8-6.7 0.5-1.5 1.5-2.7 3.1-3.6 1.5-0.9 3.4-1.4 5.6-1.4 1.8 0 3.4 0.3 4.8 0.9 1.4 0.6 2.5 1.4 3.2 2.3s1.2 1.9 1.4 3C93 62.9 93.1 64.7 93.1 67.2zM85 64.4c0-1.7-0.1-2.8-0.3-3.3 -0.2-0.4-0.6-0.7-1.2-0.7 -0.6 0-1 0.2-1.2 0.7S82 62.7 82 64.4v16c0 1.9 0.1 3 0.3 3.4s0.6 0.6 1.2 0.6c0.6 0 1-0.2 1.2-0.7 0.2-0.5 0.3-1.5 0.3-3.1V64.4z"/><path class="st3" d="M107.4 61.7v5.6c0 1.5-0.1 2.6-0.4 3.3 -0.3 0.7-0.9 1.4-1.8 1.9 -0.9 0.5-2.1 0.8-3.6 0.8 -1.7 0-3-0.3-3.9-0.8 -0.9-0.5-1.5-1.1-1.8-1.9 -0.3-0.7-0.5-1.8-0.5-3.1v-5.9c0-1.6 0.2-2.8 0.5-3.6 0.3-0.8 1-1.4 1.9-1.9 0.9-0.5 2.1-0.7 3.5-0.7 1.5 0 2.8 0.3 3.7 0.8s1.6 1.2 1.9 1.9S107.4 60.1 107.4 61.7zM102.2 60.2c0-0.9 0-1.4-0.1-1.6 -0.1-0.2-0.3-0.3-0.7-0.3 -0.4 0-0.6 0.1-0.7 0.3 -0.1 0.2-0.2 0.7-0.2 1.6v8.2c0 0.9 0 1.5 0.1 1.7 0.1 0.2 0.3 0.3 0.7 0.3 0.3 0 0.6-0.1 0.7-0.3s0.2-0.7 0.2-1.5V60.2zM116.9 55.5l-12.8 33.9H101l12.8-33.9H116.9zM122.5 77.5v5.6c0 1.5-0.1 2.6-0.4 3.3 -0.3 0.7-0.9 1.4-1.8 1.9s-2.1 0.8-3.6 0.8c-1.7 0-3-0.3-3.9-0.8s-1.5-1.2-1.8-1.9c-0.3-0.7-0.5-1.8-0.5-3.1v-5.9c0-1.6 0.2-2.8 0.5-3.6 0.3-0.8 1-1.4 1.9-1.9 0.9-0.5 2.1-0.7 3.5-0.7 1.5 0 2.8 0.3 3.8 0.8 1 0.5 1.6 1.2 1.9 1.9C122.4 74.8 122.5 75.9 122.5 77.5zM117.4 76.1c0-0.9 0-1.4-0.1-1.6 -0.1-0.2-0.3-0.3-0.7-0.3 -0.4 0-0.6 0.1-0.7 0.3 -0.1 0.2-0.2 0.7-0.2 1.6v8.2c0 0.9 0 1.5 0.1 1.7 0.1 0.2 0.3 0.3 0.7 0.3 0.4 0 0.6-0.1 0.7-0.3 0.1-0.2 0.1-0.7 0.1-1.5V76.1z"/></g></svg>