<svg xmlns="http://www.w3.org/2000/svg" xmlns:xlink="http://www.w3.org/1999/xlink" version="1.1" x="0" y="0" viewBox="0 0 150 150" enable-background="new 0 0 150 150" xml:space="preserve"><g id="Layer_1" display="none"><g display="inline"><path fill="#D2202E" d="M80.9 27.9c29.3 0 53.1 23.8 53.1 53.1S110.2 134 80.9 134s-53.1-23.8-53.1-53.1S51.7 27.9 80.9 27.9M80.9 11.9c-38.1 0-69.1 30.9-69.1 69.1S42.8 150 80.9 150 150 119.1 150 80.9 119.1 11.9 80.9 11.9L80.9 11.9z"/></g></g><g id="Layer_2" display="none"><line display="inline" fill="none" stroke="#000000" stroke-miterlimit="10" x1="45" y1="53.8" x2="116" y2="53.8"/><line display="inline" fill="none" stroke="#000000" stroke-miterlimit="10" x1="45" y1="96.2" x2="116" y2="96.2"/></g><g id="Layer_3" display="none"><g display="inline"><path fill="#F6B519" d="M33.6 44.1c4-5 18.2-26.2 11.2-31.7 0 0 80.5 64.1 83.5 66.5 4.7 3.8-0.3 18-11.2 31.7s-23.6 21.8-28.4 18c-2.8-2.3-83.5-66.5-83.5-66.5C12 67.6 29.2 49.6 33.6 44.1z"/><path fill="#FFFFFF" d="M44.8 12.4c0 0 1.1 0.9 5.9 4.7s-0.3 18-11.2 31.7 -23.6 21.8-28.4 18c-2.9-2.3-5.9-4.7-5.9-4.7C7.4 57.3 40.5 17.7 44.8 12.4z"/><ellipse transform="matrix(-0.7824 -0.6228 0.6228 -0.7824 21.3227 81.995)" fill="#949599" cx="25" cy="37.3" rx="11" ry="31.8"/></g></g><g id="Layer_4" display="none"><line display="inline" fill="#D2202E" stroke="#D2202E" stroke-width="18" stroke-miterlimit="10" x1="115.5" y1="34.5" x2="34.5" y2="115.5"/></g><g id="Layer_5"><path fill="#D2202E" d="M3.6 109.3V30.5h14l12.2 30.9c2.3 6.1 6.2 16.2 8.4 23h0.2c-0.5-8.3-1.5-22-1.5-36.5V30.5h13.4v78.8h-14l-12-29.9c-2.6-6.7-6.2-16.6-7.9-23.7h-0.2c0.4 7.9 0.9 20.1 0.9 35.9v17.8H3.6z"/><path fill="#F9CE65" d="M63.9 30.5h34.2v13.3H79.3v20.2H97v12.7H79.3v32.5H63.9V30.5z"/><path fill="#F9CE65" d="M147.5 108.1c-2.2 1.1-6.5 1.9-11.9 1.9 -20.1 0-29.7-16.6-29.7-38.9 0-29.7 16.5-41.3 31.8-41.3 5.4 0 9.1 1.1 10.6 2.1l-2.6 12.9c-1.8-0.8-3.7-1.5-7.1-1.5 -8.6 0-16.5 7.5-16.5 27 0 18.8 7.1 26.2 16.5 26.2 2.6 0 5.5-0.6 7.4-1.2L147.5 108.1z"/></g></svg>