<?xml version="1.0" encoding="UTF-8"?>
<svg data-name="Layer 1" viewBox="0 0 150 150" xmlns="http://www.w3.org/2000/svg">
<title>icon-usa-apples</title>
<path transform="translate(0)" d="m73 0a75 75 0 0 0 -0.73 150h4.65a75 75 0 1 0 -3.92 -150" fill="#ac1f2d"/>
<path transform="translate(0)" d="M73.22,7.26c1.44-.06,2.82,0,4.2,0a67.74,67.74,0,0,1,61.34,45H11.22a67.8,67.8,0,0,1,62-45" fill="#fff"/>
<path transform="translate(0)" d="M76.77,142.76a67.76,67.76,0,0,1-65.57-45H138.76a67.85,67.85,0,0,1-62,45" fill="#fff"/>
<polyline points="133.37 83.96 127.49 80.05 121.64 83.96 123.54 77.18 118 72.81 125.05 72.54 127.49 65.92 129.94 72.54 137 72.81 131.46 77.18 133.37 83.96" fill="#fff"/>
<polyline points="28.48 83.96 22.61 80.05 16.75 83.96 18.66 77.18 13.11 72.81 20.16 72.54 22.61 65.92 25.05 72.54 32.1 72.81 26.58 77.18 28.48 83.96" fill="#fff"/>
<path transform="translate(0)" d="M45,30.12l-4.7,1-.14-4.23,9.94-2V45.79H45Z" fill="#ac1f2d"/>
<path transform="translate(0)" d="M67.66,35.49q0,5.17-2,8A6.46,6.46,0,0,1,60,46.29a6.23,6.23,0,0,1-5.58-2.78C53.21,41.66,52.6,39,52.6,35.56s.65-6.14,1.95-8a6.45,6.45,0,0,1,5.65-2.8,6.29,6.29,0,0,1,5.6,2.78Q67.66,30.33,67.66,35.49Zm-4.63.1a22.17,22.17,0,0,0-.23-3.48,7.83,7.83,0,0,0-.65-2.2,2.74,2.74,0,0,0-.94-1.15,2,2,0,0,0-1.13-.34,2.08,2.08,0,0,0-1.11.32,2.62,2.62,0,0,0-.9,1.13,9.33,9.33,0,0,0-.61,2.19,21.8,21.8,0,0,0-.23,3.46,19.19,19.19,0,0,0,.25,3.41,8.23,8.23,0,0,0,.64,2.16,2.64,2.64,0,0,0,1,1.14,2.18,2.18,0,0,0,1.14.33,2.08,2.08,0,0,0,1.11-.32,2.47,2.47,0,0,0,.9-1.11,8.54,8.54,0,0,0,.6-2.15A22.67,22.67,0,0,0,63,35.59Z" fill="#ac1f2d"/>
<path transform="translate(0)" d="M84.73,35.49q0,5.17-2,8a6.46,6.46,0,0,1-5.68,2.81,6.26,6.26,0,0,1-5.59-2.78c-1.23-1.85-1.84-4.51-1.84-7.95s.64-6.14,1.94-8a6.46,6.46,0,0,1,5.65-2.8,6.27,6.27,0,0,1,5.6,2.78Q84.74,30.33,84.73,35.49Zm-4.63.1a22.17,22.17,0,0,0-.23-3.48,7.83,7.83,0,0,0-.65-2.2,2.75,2.75,0,0,0-1-1.15,2,2,0,0,0-1.12-.34,2.08,2.08,0,0,0-1.11.32,2.55,2.55,0,0,0-.9,1.13,8.87,8.87,0,0,0-.61,2.19,20.67,20.67,0,0,0-.23,3.46,19.19,19.19,0,0,0,.25,3.41,8.23,8.23,0,0,0,.64,2.16,2.64,2.64,0,0,0,1,1.14,2.15,2.15,0,0,0,1.14.33,2.08,2.08,0,0,0,1.11-.32,2.6,2.6,0,0,0,.9-1.11A8.17,8.17,0,0,0,79.88,39,21.26,21.26,0,0,0,80.1,35.59Z" fill="#ac1f2d"/>
<path transform="translate(0)" d="M97.15,30.62a6.36,6.36,0,0,1-.38,2.27,5,5,0,0,1-1.1,1.77,4.81,4.81,0,0,1-1.77,1.15,6.62,6.62,0,0,1-2.37.4,5.41,5.41,0,0,1-4.12-1.55,5.62,5.62,0,0,1-1.47-4,5.22,5.22,0,0,1,5.62-5.56,6.4,6.4,0,0,1,2.35.4,4.81,4.81,0,0,1,1.76,1.13,4.91,4.91,0,0,1,1.1,1.76A6.32,6.32,0,0,1,97.15,30.62ZM92.27,46.27H88.56l16.55-20.89h3.7Zm1.59-15.62a3.55,3.55,0,0,0-.63-2.24,2.08,2.08,0,0,0-1.7-.8,2,2,0,0,0-1.68.8,3.61,3.61,0,0,0-.62,2.24,3.46,3.46,0,0,0,.62,2.19,2.08,2.08,0,0,0,1.71.78,2,2,0,0,0,1.67-.8A3.4,3.4,0,0,0,93.86,30.65ZM111.37,41a5.63,5.63,0,0,1-1.48,4.06,5.53,5.53,0,0,1-4.14,1.53A5.38,5.38,0,0,1,101.63,45a5.62,5.62,0,0,1-1.47-4,6.36,6.36,0,0,1,.38-2.27A4.91,4.91,0,0,1,101.66,37a5.09,5.09,0,0,1,1.77-1.14,7.1,7.1,0,0,1,4.7,0A5,5,0,0,1,109.89,37a5.16,5.16,0,0,1,1.1,1.75A6.59,6.59,0,0,1,111.37,41Zm-3.29,0a3.53,3.53,0,0,0-.62-2.2,2,2,0,0,0-1.68-.8,2.07,2.07,0,0,0-1.71.8,4.27,4.27,0,0,0,0,4.43,2.08,2.08,0,0,0,1.71.78,2,2,0,0,0,1.68-.8A3.54,3.54,0,0,0,108.08,41Z" fill="#ac1f2d"/>
<path transform="translate(0)" d="M60.56,83.15a9.81,9.81,0,0,1-6.33,6,16.43,16.43,0,0,1-5.07.73,16.85,16.85,0,0,1-5-.69,10.5,10.5,0,0,1-3.86-2.08,9.28,9.28,0,0,1-2.51-3.54,13,13,0,0,1-.89-5.07V61.43H44V77.57a7.55,7.55,0,0,0,1.28,4.76,4.9,4.9,0,0,0,4.06,1.6A4.75,4.75,0,0,0,53.1,82.5c.84-.94,1.26-2.5,1.26-4.66V61.43h7.07V77.88A14.55,14.55,0,0,1,60.56,83.15Z" fill="#fff"/>
<path transform="translate(0)" d="M75.49,84.06a6,6,0,0,0,3-.67,2.11,2.11,0,0,0,1.17-2,1.89,1.89,0,0,0-.37-1.2,3.37,3.37,0,0,0-1.09-.87,10.3,10.3,0,0,0-1.77-.71L74,77.92a25.78,25.78,0,0,1-3.08-1,12.89,12.89,0,0,1-2.88-1.57,7.46,7.46,0,0,1-2.12-2.41,7,7,0,0,1-.82-3.53,7.76,7.76,0,0,1,2.75-6.22c1.84-1.57,4.47-2.36,7.91-2.36a23,23,0,0,1,5.84.67,19.26,19.26,0,0,1,4.55,1.77l-1.38,5.83a21.8,21.8,0,0,0-4.48-1.78,17,17,0,0,0-4.49-.67c-2.42,0-3.64.79-3.64,2.36a1.74,1.74,0,0,0,.45,1.18,3.81,3.81,0,0,0,1.24.89,15.06,15.06,0,0,0,1.87.71l2.31.69a30.05,30.05,0,0,1,3.16,1.06A12.3,12.3,0,0,1,84,75.1a7.49,7.49,0,0,1,2,2.36,7.09,7.09,0,0,1,.75,3.4A8.65,8.65,0,0,1,86,84.5a8.11,8.11,0,0,1-2.2,2.85,10.56,10.56,0,0,1-3.56,1.87,16.35,16.35,0,0,1-4.87.66,23.91,23.91,0,0,1-5.93-.71,19.17,19.17,0,0,1-4.78-1.82L66,81.48a25.11,25.11,0,0,0,4.5,1.85A17,17,0,0,0,75.49,84.06Z" fill="#fff"/>
<path transform="translate(0)" d="M116.72,89.22h-7l-2-5.92H97.34l-2,5.92h-7l9.86-27.79H107ZM102.54,66.9,98.85,77.79h7.24Z" fill="#fff"/>
<path transform="translate(0)" d="M48.88,122.13h-4l-1.15-3.33H38l-1.13,3.33h-4l5.55-15.63h5Zm-8-12.56-2.07,6.13H42.9Z" fill="#ac1f2d"/>
<path transform="translate(0)" d="m63.08 111.93a5.11 5.11 0 0 1 -1.79 4.2 8.05 8.05 0 0 1 -5.16 1.45h-1.53v4.53h-4v-15.61h5.8a9.3 9.3 0 0 1 2.89 0.4 6.3 6.3 0 0 1 2.09 1.1 4.47 4.47 0 0 1 1.27 1.72 5.4 5.4 0 0 1 0.43 2.21zm-4 0.11c0-1.58-1-2.36-3-2.36h-1.57v4.85h1.59a3.55 3.55 0 0 0 2.27 -0.65 2.24 2.24 0 0 0 0.74 -1.88z" fill="#ac1f2d"/>
<path transform="translate(0)" d="M77.71,111.93a5.11,5.11,0,0,1-1.79,4.2,8.06,8.06,0,0,1-5.17,1.45l-1.52,0v4.53h-4V106.5H71a9.34,9.34,0,0,1,2.89.4A6.4,6.4,0,0,1,76,108a4.57,4.57,0,0,1,1.27,1.72A5.57,5.57,0,0,1,77.71,111.93Zm-4,.11c0-1.58-1-2.36-3-2.36H69.13v4.85l1.59,0a3.56,3.56,0,0,0,2.28-.65A2.23,2.23,0,0,0,73.73,112Z" fill="#ac1f2d"/>
<path transform="translate(0)" d="M79.88,122.13V106.5h4v12.3h6.55v3.33Z" fill="#ac1f2d"/>
<path transform="translate(0)" d="M92.66,122.13V106.5h11.42v3.18H96.55v3h6.06v3.18H96.55V119h7.53v3.18Z" fill="#ac1f2d"/>
<path transform="translate(0)" d="M112.09,119.23a3.44,3.44,0,0,0,1.71-.38,1.19,1.19,0,0,0,.66-1.1,1,1,0,0,0-.22-.67,1.71,1.71,0,0,0-.61-.49,5.33,5.33,0,0,0-1-.4c-.4-.13-.86-.26-1.37-.41a16.13,16.13,0,0,1-1.74-.58,7.06,7.06,0,0,1-1.62-.89,4,4,0,0,1-1.19-1.35,3.92,3.92,0,0,1-.46-2,4.37,4.37,0,0,1,1.55-3.51,6.65,6.65,0,0,1,4.44-1.32,13.55,13.55,0,0,1,3.29.37,11.87,11.87,0,0,1,2.56,1l-.78,3.28a12.15,12.15,0,0,0-2.52-1,9.43,9.43,0,0,0-2.52-.37c-1.37,0-2,.44-2,1.32a1,1,0,0,0,.25.66,2,2,0,0,0,.7.5,6.61,6.61,0,0,0,1,.4c.4.13.83.26,1.3.39s1.19.37,1.78.6a6.52,6.52,0,0,1,1.57.89,4.22,4.22,0,0,1,1.13,1.32,4.06,4.06,0,0,1,.42,1.92,4.91,4.91,0,0,1-.42,2,4.58,4.58,0,0,1-1.24,1.6,5.84,5.84,0,0,1-2,1,9.13,9.13,0,0,1-2.74.37,13.46,13.46,0,0,1-3.34-.4,10.64,10.64,0,0,1-2.68-1l.75-3.3a14,14,0,0,0,2.53,1A9.4,9.4,0,0,0,112.09,119.23Z" fill="#ac1f2d"/>
</svg>
