<svg xmlns="http://www.w3.org/2000/svg" xmlns:xlink="http://www.w3.org/1999/xlink" version="1.1" x="0" y="0" viewBox="0 0 150 150" xml:space="preserve" enable-background="new 0 0 150 150"><style type="text/css">
	.st0{fill:#F68D2A;stroke:#FFFFFF;stroke-width:0.25;stroke-miterlimit:10;}
	.st1{display:none;}
	.st2{display:inline;fill:#00A14B;}
	.st3{fill:#FFFFFF;}
	.st4{display:inline;fill:#FFFFFF;}
	.st5{font-family:'Impact';}
	.st6{font-size:41.3619px;}
</style><g id="Layer_1"><circle class="st0" cx="75" cy="75" r="75"/></g><g id="Layer_1_copy" class="st1"/><g id="Layer_4" class="st1"/><g id="Layer_5" class="st1"/><g id="Layer_3" class="st1"><line class="st2" x1="0" y1="150" x2="150" y2="0"/><line class="st2" x1="0" y1="0" x2="150" y2="150"/></g><g id="Layer_6"><path class="st3" d="M112.2 112.9c-9.7 9.7-23.1 15.7-37.9 15.7 -29.6 0-53.6-24-53.6-53.6s24-53.6 53.6-53.6c14.8 0 28.2 6 37.9 15.7l11.9-11.9C111.3 12.5 93.8 4.6 74.3 4.6 35.5 4.6 3.9 36.1 3.9 75c0 38.9 31.5 70.4 70.4 70.4 19.4 0 37-7.9 49.8-20.6L112.2 112.9z"/></g><g id="Layer_7" class="st1"><text transform="matrix(1 0 0 1 29.4976 88.794)" class="st4 st5 st6">200%</text></g></svg>