<svg id="Layer_1" data-name="Layer 1" xmlns="http://www.w3.org/2000/svg" viewBox="0 0 23.38 36"><title>icon-home-grapes</title><path d="M29.69,5.71a8.71,8.71,0,0,1-3.49-.34c.3-.9.51-1.4.51-1.4a8.29,8.29,0,0,0-7.65,3.6,4,4,0,0,0-1,.53,12.71,12.71,0,0,1,1.47-3.18,8.31,8.31,0,0,1,4.76-3.84.55.55,0,0,0,.41-.66A.53.53,0,0,0,24,0h0a9.43,9.43,0,0,0-5.44,4.32,14,14,0,0,0-1.21,2.38,6.67,6.67,0,0,0-2.66-5.09,5.18,5.18,0,0,0-7.26,1,4,4,0,0,0-.81,2.43,4.05,4.05,0,0,0,1.6,3.23,3.21,3.21,0,0,0,1.91.63,3.17,3.17,0,0,0,2.53-1.26,2.5,2.5,0,0,0-.5-3.5A1.94,1.94,0,0,0,11,3.75a2,2,0,0,0-1.6.8.43.43,0,0,0,.08.61.44.44,0,0,0,.62-.08,1.09,1.09,0,0,1,.9-.45,1.12,1.12,0,0,1,.68.23,1.62,1.62,0,0,1,.64,1.3,1.64,1.64,0,0,1-.32,1,2.31,2.31,0,0,1-1.83.9,2.25,2.25,0,0,1-1.38-.46,3.17,3.17,0,0,1-.62-4.42,4.31,4.31,0,0,1,3.44-1.71,4.25,4.25,0,0,1,2.59.87,5.8,5.8,0,0,1,1.14,8.15.34.34,0,0,0-.06.12l-.13-.14a2.64,2.64,0,0,0-3.73,0,2.74,2.74,0,0,0-.64,1,2.64,2.64,0,0,0-3.31,4.08l.14.13a2.63,2.63,0,0,0,0,3.12,2.49,2.49,0,0,0-.52.4,2.65,2.65,0,0,0,.71,4.24,2.64,2.64,0,0,0,.51,2.8,2.64,2.64,0,0,0,.15,3.57,2.54,2.54,0,0,0,.73.51,2.75,2.75,0,0,0,.16.9,3.88,3.88,0,0,0-.31.26,2.64,2.64,0,1,0,4.35,1,2.51,2.51,0,0,0,.31-.26l0,0a2.64,2.64,0,0,0,3.38-3.75,2.62,2.62,0,0,0,.6-.45,2.55,2.55,0,0,0,.62-1,2.64,2.64,0,0,0,2.34-3.79,2.71,2.71,0,0,0,.66-.48.86.86,0,0,1,.13-.14,2.64,2.64,0,0,0,2.74-4.15,2.64,2.64,0,0,0-2.37-4.28,2.64,2.64,0,0,0-4.26-2.83c0-.12,0-.23,0-.35a9.14,9.14,0,0,1,.08-1.15A2.9,2.9,0,0,1,18.32,9a3.24,3.24,0,0,1,.53-.35c4.62,3.8,8.65,1.91,8.65,1.91l-.59-.91A4.07,4.07,0,0,0,29.69,5.71ZM10.13,15.79a.75.75,0,0,1,0-1.5.75.75,0,1,1,0,1.5Zm2.62-2.55a.76.76,0,1,1,.76.75A.76.76,0,0,1,12.75,13.24Zm1.56,5.47a.76.76,0,0,1,0-1.51.76.76,0,0,1,0,1.51Z" transform="translate(-6.31)" style="fill:#fff"/></svg>