<?xml version="1.0" encoding="UTF-8"?>
<svg viewBox="0 0 81.89 150" xmlns="http://www.w3.org/2000/svg">
<g data-name="Layer 2">
<g data-name="Layer 1">
<g data-name="Layer 2">
<path d="M81.89,64.09C81.89,41.44,49.28,19.08,54,0,21.43,18.16,0,41.44,0,64.09a40.95,40.95,0,0,0,81.89,0Z" fill="#435fa0"/>
</g>
<g data-name="Layer 3">
<path d="M35.6,18.73C34.75,18.87,7,42.8,8.54,53.62c2.07,11,11,5.63,11.4,4.13C29.91,23.5,35.6,18.73,35.6,18.73Z" fill="#fff" opacity=".47" style="isolation:isolate"/>
</g>
<g data-name="Layer 2">
<path d="M81.89,109.06c0-22.65-32.61-45-27.91-64.09C21.43,63.13,0,86.41,0,109.06a40.95,40.95,0,0,0,81.89,0Z" fill="#f9ce65"/>
</g>
<g data-name="Layer 3">
<path d="M35.6,63.7C34.75,63.84,7,87.76,8.54,98.59c2.07,11,11,5.62,11.4,4.13C29.91,68.47,35.6,63.7,35.6,63.7Z" fill="#fff" opacity=".47" style="isolation:isolate"/>
</g>
</g>
</g>
</svg>
