<svg id="Layer_1" data-name="Layer 1" xmlns="http://www.w3.org/2000/svg" viewBox="0 0 27.24 36"><title>icon-home-strawberry</title><path d="M31.62,17.9A7.87,7.87,0,0,1,30.5,22L23.87,32.71a6.88,6.88,0,0,1-11.74,0L5.5,22a7.87,7.87,0,0,1,5.25-11.77,12.07,12.07,0,0,1-3.44-3.9,11.88,11.88,0,0,1,5.92,1.45l.22.13-.14-.24a12,12,0,0,1-1.45-5.93,12,12,0,0,1,4.41,4.22l0,0v-.1A11.9,11.9,0,0,1,18,0a11.9,11.9,0,0,1,1.71,5.85V6l0-.07a11.84,11.84,0,0,1,4.53-4.07,11.93,11.93,0,0,1-1.63,5.87L22.5,8l.23-.13a12,12,0,0,1,6-1.26,12.29,12.29,0,0,1-3.28,3.61A7.85,7.85,0,0,1,31.62,17.9ZM20.77,15.56a.92.92,0,1,0,.92.92A.92.92,0,0,0,20.77,15.56Zm-5.54,0a.92.92,0,1,0,.91.92A.92.92,0,0,0,15.23,15.56Zm-5.55,0a.92.92,0,1,0,.91.92A.92.92,0,0,0,9.68,15.56Zm5.55,8.24a.92.92,0,1,0,.91.92A.92.92,0,0,0,15.23,23.8ZM18,19.68a.92.92,0,1,0,.92.92A.92.92,0,0,0,18,19.68Zm-5.55,0a.92.92,0,1,0,.92.92A.92.92,0,0,0,12.45,19.68Z" transform="translate(-4.38)" style="fill:#fff"/></svg>