<?xml version="1.0" encoding="utf-8"?>
<!-- Generator: Adobe Illustrator 22.1.0, SVG Export Plug-In . SVG Version: 6.00 Build 0)  -->
<svg version="1.1" id="Layer_1" xmlns="http://www.w3.org/2000/svg" xmlns:xlink="http://www.w3.org/1999/xlink" x="0px" y="0px"
	 viewBox="0 0 36 36" style="enable-background:new 0 0 36 36;" xml:space="preserve">
<style type="text/css">
	.st0{fill:#FFFFFF;}
</style>
<path d="M331.2,208.3c-2.3-8.9-6.9-17.5-15.7-19v-8.8c0-10.7,7.9-13.6,8.2-13.8c1.4-0.5,2.1-2,1.6-3.4c-0.5-1.4-2-2.1-3.4-1.6
	c-0.5,0.2-11.8,4.2-11.8,18.8v8.8c-8.8,1.5-13.3,10-15.7,19c-6.2,23.8-16.4,25.7-16.4,48.7c0,17.2,15.3,31.1,34.7,31.1
	s34.7-13.9,34.7-31.1C347.6,234.1,337.4,232.1,331.2,208.3z M306,211.3c-3,11.5-6.9,18.6-10,24.4c-0.3,0.6-0.9,0.9-1.5,0.9
	c-0.3,0-0.6-0.1-0.8-0.2c-0.8-0.5-1.2-1.5-0.7-2.4c3-5.6,6.8-12.5,9.7-23.6c0.2-0.9,1.2-1.5,2.1-1.3
	C305.7,209.4,306.2,210.3,306,211.3z"/>
<path class="st0" d="M23.2,13.3c-0.7-2.5-2-5-4.5-5.4V5.4c0-3,2.2-3.9,2.3-3.9c0.4-0.1,0.6-0.6,0.5-1c-0.1-0.4-0.6-0.6-1-0.5
	c-0.1,0-3.4,1.2-3.4,5.3v2.5c-2.5,0.4-3.8,2.9-4.5,5.4C11,20,8.1,20.6,8.1,27.1C8.1,32,12.5,36,18,36s9.9-4,9.9-8.9
	C27.9,20.6,25,20,23.2,13.3z M16,14.1c-0.8,3.3-2,5.3-2.8,6.9c-0.1,0.2-0.3,0.3-0.4,0.3c-0.1,0-0.2,0-0.2-0.1
	c-0.2-0.1-0.3-0.4-0.2-0.7c0.9-1.6,1.9-3.6,2.8-6.7c0.1-0.3,0.3-0.4,0.6-0.4C15.9,13.6,16.1,13.8,16,14.1z"/>
</svg>
