<svg xmlns="http://www.w3.org/2000/svg" xmlns:xlink="http://www.w3.org/1999/xlink" version="1.1" x="0" y="0" viewBox="0 0 150 150" xml:space="preserve" enable-background="new 0 0 150 150"><style type="text/css">
	.st0{fill:#FFFFFF;}
	.st1{fill:#7D3754;}
	.st2{display:none;}
	.st3{display:inline;fill:#7D3754;stroke:#FFFFFF;stroke-width:3;stroke-miterlimit:10;}
	.st4{font-family:'MyriadPro-BoldCond';}
	.st5{font-size:34.9179px;}
</style><g id="Layer_1"><path class="st0" d="M55.8 121.8c-26.6 0-48.2-21.6-48.2-48.2 0-26.6 21.6-48.2 48.2-48.2 14.5 0 37.1 6.6 55 16.1 19.9 10.5 31.7 23.1 31.7 33.6C142.5 98.2 86.8 121.8 55.8 121.8z"/><path class="st1" d="M55.8 32.2c11 0 31.9 4.8 51.8 15.3 20.6 10.9 28 21.6 28 27.4 0 7.4-10.8 17.5-27.6 25.7 -19.6 9.6-40.8 14-52.2 14 -22.7 0-41.2-18.5-41.2-41.2S33 32.2 55.8 32.2M55.8 18.2C25.2 18.2 0.5 43 0.5 73.5s24.7 55.2 55.2 55.2 93.8-23.2 93.8-53.8S86.3 18.2 55.8 18.2L55.8 18.2z"/><rect x="52.2" y="21.5" transform="matrix(0.7071 0.7071 -0.7071 0.7071 68.0799 -21.6095)" class="st1" width="15.8" height="99.8"/></g><g id="Layer_2" class="st2"><text transform="matrix(1 0 0 1 16 81.4313)" class="st3 st4 st5">allergens</text></g><g id="Layer_4"><rect x="32.7" y="60.1" class="st0" width="68.2" height="26.5"/></g><g id="Layer_2_copy"><path class="st1" d="M25.3 81.4L25 79.8h-0.1c-0.9 1.3-2.3 2-3.8 2 -2.6 0-4.5-2.2-4.5-5.2 0-4.5 3.9-6.3 7.8-6.4v-0.4c0-1.3-0.8-2.3-2.4-2.3 -1.4 0-2.5 0.3-3.5 1l-0.8-3.1c0.9-0.6 2.9-1.3 5.3-1.3 5.2 0 6 3.6 6 7.1v6.4c0 1.4 0.1 2.8 0.3 3.9H25.3zM24.6 73.1c-1.5 0-3.6 0.5-3.6 2.9 0 1.7 0.9 2.3 1.6 2.3 0.7 0 1.6-0.5 1.9-1.5 0.1-0.2 0.1-0.5 0.1-0.8V73.1z"/><path class="st1" d="M32.3 57.3h4.6v24.2h-4.6V57.3z"/><path class="st1" d="M40.2 57.3h4.6v24.2h-4.6V57.3z"/><path class="st1" d="M51.9 74.5c0.1 2.7 1.6 3.6 3.6 3.6 1.3 0 2.4-0.3 3.2-0.6l0.6 3.3c-1.2 0.5-3 0.8-4.7 0.8 -4.6 0-7.2-3.1-7.2-8.4 0-5.7 3-9.1 6.8-9.1 3.7 0 5.8 2.9 5.8 8.1 0 1.2 0 1.9-0.1 2.4H51.9zM55.9 71.3c0-2.2-0.6-3.9-1.9-3.9 -1.5 0-2.1 2.2-2.1 3.9H55.9z"/><path class="st1" d="M62.6 69.5c0-1.7-0.1-3.6-0.1-5.1h4l0.2 2.5h0.1c0.8-1.8 2.1-2.8 3.4-2.8 0.5 0 0.7 0 1 0.1v4.5c-0.3-0.1-0.6-0.1-1-0.1 -1 0-2.3 0.7-2.8 2.4 -0.1 0.4-0.2 1-0.2 1.7v8.7h-4.6V69.5z"/><path class="st1" d="M85.4 64.4c-0.1 1.5-0.2 3.4-0.2 5.4v9.7c0 3.7-0.7 5.7-2.1 7 -1.3 1.2-3 1.9-5.6 1.9 -1.6 0-3-0.3-4.3-0.8l0.8-3.5c0.9 0.4 2 0.7 3.3 0.7 2.3 0 3.2-1.5 3.2-4.2v-1h-0.1c-0.6 1.1-1.8 1.7-3.1 1.7 -3.8 0-5.3-4.2-5.3-8.3 0-5.7 2.6-9 5.8-9 1.4 0 2.5 0.7 3.1 2h0.1l0.2-1.7H85.4zM80.7 70.6c0-0.5-0.1-0.9-0.2-1.3 -0.2-0.7-0.7-1.4-1.5-1.4 -1.6 0-2.3 2.2-2.3 5 0 3.2 0.9 4.8 2.2 4.8 0.6 0 1.2-0.3 1.5-1.2 0.1-0.4 0.2-0.9 0.2-1.4V70.6z"/><path class="st1" d="M92.2 74.5c0.1 2.7 1.6 3.6 3.6 3.6 1.3 0 2.4-0.3 3.2-0.6l0.6 3.3c-1.2 0.5-3 0.8-4.7 0.8 -4.6 0-7.2-3.1-7.2-8.4 0-5.7 3-9.1 6.8-9.1 3.7 0 5.8 2.9 5.8 8.1 0 1.2 0 1.9-0.1 2.4H92.2zM96.3 71.3c0-2.2-0.6-3.9-1.9-3.9 -1.5 0-2.1 2.2-2.1 3.9H96.3z"/><path class="st1" d="M103 69.5c0-1.9-0.1-3.5-0.1-5.1h3.9l0.2 2h0.1c0.9-1.4 2.4-2.2 4.2-2.2 3.2 0 4.5 2.6 4.5 6.4v11h-4.6V70.7c0-1.5-0.3-2.8-1.7-2.8 -0.8 0-1.4 0.5-1.7 1.5 -0.1 0.3-0.2 0.9-0.2 1.6v10.4H103V69.5z"/><path class="st1" d="M118.9 77.3c0.7 0.4 1.9 0.9 3.1 0.9 1.2 0 1.8-0.5 1.8-1.5 0-0.9-0.5-1.4-2-2.3 -2.8-1.6-3.5-3.4-3.5-4.9 0-3.1 2.2-5.4 5.6-5.4 1.4 0 2.5 0.3 3.5 0.8l-0.8 3.4c-0.7-0.4-1.5-0.7-2.4-0.7 -1.2 0-1.7 0.7-1.7 1.5 0 0.8 0.4 1.2 2 2.1 2.5 1.4 3.5 3.2 3.5 5.2 0 3.5-2.5 5.4-6 5.4 -1.4 0-3.1-0.4-3.9-1L118.9 77.3z"/></g></svg>