<?xml version="1.0" encoding="UTF-8"?>
<svg viewBox="0 0 150 150" xmlns="http://www.w3.org/2000/svg">
<g data-name="Layer 2">
<g data-name="Layer 1">
<g data-name="Layer 2">
<circle cx="75" cy="75" r="75" fill="#f58d2c"/>
</g>
<path d="M128,22,22,128A75,75,0,0,0,128,22Z" fill="#fff" opacity=".5"/>
<g stroke="#fff" stroke-miterlimit="10" stroke-width="5.3335px" data-name="Layer 5">
<path d="M35,97.67a5.35,5.35,0,0,1-1.78,4.18,6.89,6.89,0,0,1-4.89,1.6,6.33,6.33,0,0,1-1.69-.26c-1.06-.27-1.69-.45-1.69-.45a16.87,16.87,0,0,1-1.77-.44,4.11,4.11,0,0,1-1.52-.71,10.71,10.71,0,0,1-2-2.58c-.53-.89-1.07-1.78-1.6-2.76a5.88,5.88,0,0,1-.8-1.69c0-.44.36-.8,1-1a2.2,2.2,0,0,1,.89-.09,30.63,30.63,0,0,1,3.55.26,6.47,6.47,0,0,1,2.4.54,18.79,18.79,0,0,1,.54,2.75c.17,1.42.53,2.22,1,2.22.71,0,1.07-1,1.07-2.93,0-2.49-.71-4.09-2-4.71-3-1.42-5.07-2.67-6.05-3.82-1.15-1.34-1.78-3.47-1.78-6.22a9.81,9.81,0,0,1,1.43-5.16,5.34,5.34,0,0,1,3.37-2.84c.54-.09,2.4.44,5.51,1.77.27.09,1.16.27,2.49.54a4,4,0,0,1,2.14,1,5.78,5.78,0,0,1,1.06,3.47c0,1.16.09,2.31.09,3.56.18,1.06.36,1.69.36,1.86a1.34,1.34,0,0,1-1.25,1.51,5.92,5.92,0,0,1-2.57-.53,5.84,5.84,0,0,1-2.76-1.51,21,21,0,0,1-.27-3.56c-.09-2.13-.35-3.2-.71-3.2s-.89.63-1.33,1.87a11,11,0,0,0-.62,3.82c0,1.69.35,2.76,1.06,3.2,1.6.89,3.11,1.69,4.63,2.58a10.23,10.23,0,0,1,3.2,2.67A8.74,8.74,0,0,1,35,97.67Z"/>
<path d="M60.5,75.19a2.14,2.14,0,0,1,.36,1,1.91,1.91,0,0,1-.54,1.16c-.35.44-.53.71-.53.89v22.13a3.23,3.23,0,0,0,.27,1,3.19,3.19,0,0,1,.26,1.07c0,.53-.53,1-1.51,1.24a12.06,12.06,0,0,1-3.55-.53c-2-.54-3.12-1-3.38-1.51a2.37,2.37,0,0,1,.17-1.69,4.59,4.59,0,0,0,.45-1.69A8.29,8.29,0,0,0,52.32,97a13.4,13.4,0,0,1-2,4.27c-1.07,1.42-2.14,2.22-3.11,2.22A11.46,11.46,0,0,1,43,102.39c-1.69-.71-2.67-1.43-2.94-2-.88-2-1.33-9.51-1.33-22.58A4.42,4.42,0,0,1,38.37,76a2.1,2.1,0,0,1,1.06-2,3.06,3.06,0,0,1,1.16-.18,16.17,16.17,0,0,1,3.82.54,6.63,6.63,0,0,1,2.76,1.06.84.84,0,0,1,.26.63,4.41,4.41,0,0,1-.71,1.68A4.61,4.61,0,0,0,46,79.36q-.13,18.81.27,18.94c.44.17,1.6-1.34,3.37-4.45s2.67-5.42,2.67-7.11V77.85a2,2,0,0,1-.62-1.51,2.45,2.45,0,0,1,1.6-2.49c.09-.09.35-.09.53-.09a14.44,14.44,0,0,1,3.74.63A7.13,7.13,0,0,1,60.5,75.19Z"/>
<path d="M84.59,77.23s-.18.36-.53,1a4.38,4.38,0,0,0-.36,1v20.88q0,7.88-5.87,10.14a13.55,13.55,0,0,1-5,1.07,7.86,7.86,0,0,1-5.6-2.23,22.81,22.81,0,0,1-2.32-2.49l-.88-.88a1.55,1.55,0,0,1-.54-1.07c0-.45.45-.89,1.42-1.16.09,0,.36-.09.54-.09a9.76,9.76,0,0,1,2.49.45,4,4,0,0,1,2,1.07c.53.62,1.07,1.24,1.6,2a2.32,2.32,0,0,0,1.87,1.07c1.33.09,2.13-.8,2.49-2.67a31.14,31.14,0,0,0,.26-4.89c-.09.09-.35.53-.89,1.25a3.82,3.82,0,0,1-1,1.06,1.41,1.41,0,0,1-1.07.45A6.4,6.4,0,0,1,69,101.68C65.66,98.83,64,94.56,64,89.05a19.8,19.8,0,0,1,2.22-9.51c1.6-3,3.55-4.89,6.13-5.6a1.14,1.14,0,0,1,.54-.09,3,3,0,0,1,1.68.71c.54.45,1.07.8,1.6,1.25a11.29,11.29,0,0,1,.63-1.6,1.22,1.22,0,0,1,1-.89,9.41,9.41,0,0,1,3.56.62c1.69.53,2.67,1,2.84,1.33A2.22,2.22,0,0,1,84.59,77.23ZM76.14,89a44.92,44.92,0,0,0,.36-5.42c0-2.58-.44-4-1.24-4.35s-1.52.88-2.4,3.37a18.85,18.85,0,0,0-1.43,6.85,26.3,26.3,0,0,0,1.25,8.89A20.31,20.31,0,0,0,76.14,89Z"/>
<path d="M110.46,101.41a1.54,1.54,0,0,1-.54,1.15,1.15,1.15,0,0,1-1.15.36c-3.91-.53-6.14-1.24-6.58-2.22a.54.54,0,0,1-.09-.36,1.24,1.24,0,0,1,.18-.53.78.78,0,0,0,.27-.54.93.93,0,0,1,.17-.44,7.22,7.22,0,0,0,.09-1.69,9.08,9.08,0,0,0-1.69,2.31A12.36,12.36,0,0,1,99,102.3a4.69,4.69,0,0,1-3.47,1.42,3.24,3.24,0,0,1-2.22-.89A17.21,17.21,0,0,1,91.43,101c-1.51-1.69-2.31-2.66-2.49-2.84a3.87,3.87,0,0,1-1-2.49,2.43,2.43,0,0,1,.09-.8q.93-4.14,5.6-8a57.8,57.8,0,0,1,9.69-5.78c0-1-.27-1.69-.8-2-.36-.18-1.43.17-3.38,1.06a23,23,0,0,0-4,2.31c-.27.27-.71.63-1.25,1.07a1.6,1.6,0,0,1-1.51.27,10.5,10.5,0,0,1-2.22-1.69A7.33,7.33,0,0,1,88.32,80a1.65,1.65,0,0,1,.8-2s.71-.18,1.87-.53c1.15-.62,2.31-1.25,3.55-1.87a17.7,17.7,0,0,1,6.32-1.87,3.93,3.93,0,0,1,2.49,1.16c.8.71,1.68,1.42,2.48,2.13A28.65,28.65,0,0,0,108.41,79a3.8,3.8,0,0,1,1.51,2.58v18A5.72,5.72,0,0,1,110.46,101.41Zm-7.65-14a9.76,9.76,0,0,0-4,2.76l-2.49,3a9.51,9.51,0,0,0-1.86,2.58,5.18,5.18,0,0,0-.89,2.4c0,.26.09.35.26.35.71,0,2.14-1.42,4.45-4.35A31.49,31.49,0,0,0,102.81,87.45Z"/>
<path d="M132.77,77.14a1.2,1.2,0,0,1-.54,1.25,5.83,5.83,0,0,0-1.06.62c-2,3-4.71,7.2-8.18,12.35,0,5.07,0,7.65.09,7.83s.18.53.35,1.24a6,6,0,0,1,.27,1.51,1.28,1.28,0,0,1-.8,1.25,3.21,3.21,0,0,1-1.42.26,11.24,11.24,0,0,1-4-.8c-1.87-.62-2.76-1.42-2.76-2.4a4.45,4.45,0,0,1,.36-1.42,4,4,0,0,0,.35-1.6V78.39c-.35-1.78-.53-2.67-.53-2.76a1.77,1.77,0,0,1,1.33-1.87,5.62,5.62,0,0,1,1.43-.17,11.54,11.54,0,0,1,3.46.53c1.25.35,2,.71,2.14,1.15a.67.67,0,0,1,.09.45c0,.18-.27.89-.72,2.31v2.31c.8-1.33,1.52-2.75,2.23-4.09,1-1.69,1.69-2.58,2.22-2.75a5.17,5.17,0,0,1,3.2,1.24C131.7,75.72,132.59,76.52,132.77,77.14Z"/>
</g>
<g fill="#f58d2c" data-name="Layer 5 copy">
<path d="M35,97.67a5.35,5.35,0,0,1-1.78,4.18,6.89,6.89,0,0,1-4.89,1.6,6.33,6.33,0,0,1-1.69-.26c-1.06-.27-1.69-.45-1.69-.45a16.87,16.87,0,0,1-1.77-.44,4.11,4.11,0,0,1-1.52-.71,10.71,10.71,0,0,1-2-2.58c-.53-.89-1.07-1.78-1.6-2.76a5.88,5.88,0,0,1-.8-1.69c0-.44.36-.8,1-1a2.2,2.2,0,0,1,.89-.09,30.63,30.63,0,0,1,3.55.26,6.47,6.47,0,0,1,2.4.54,18.79,18.79,0,0,1,.54,2.75c.17,1.42.53,2.22,1,2.22.71,0,1.07-1,1.07-2.93,0-2.49-.71-4.09-2-4.71-3-1.42-5.07-2.67-6.05-3.82-1.15-1.34-1.78-3.47-1.78-6.22a9.81,9.81,0,0,1,1.43-5.16,5.34,5.34,0,0,1,3.37-2.84c.54-.09,2.4.44,5.51,1.77.27.09,1.16.27,2.49.54a4,4,0,0,1,2.14,1,5.78,5.78,0,0,1,1.06,3.47c0,1.16.09,2.31.09,3.56.18,1.06.36,1.69.36,1.86a1.34,1.34,0,0,1-1.25,1.51,5.92,5.92,0,0,1-2.57-.53,5.84,5.84,0,0,1-2.76-1.51,21,21,0,0,1-.27-3.56c-.09-2.13-.35-3.2-.71-3.2s-.89.63-1.33,1.87a11,11,0,0,0-.62,3.82c0,1.69.35,2.76,1.06,3.2,1.6.89,3.11,1.69,4.63,2.58a10.23,10.23,0,0,1,3.2,2.67A8.74,8.74,0,0,1,35,97.67Z"/>
<path d="M60.5,75.19a2.14,2.14,0,0,1,.36,1,1.91,1.91,0,0,1-.54,1.16c-.35.44-.53.71-.53.89v22.13a3.23,3.23,0,0,0,.27,1,3.19,3.19,0,0,1,.26,1.07c0,.53-.53,1-1.51,1.24a12.06,12.06,0,0,1-3.55-.53c-2-.54-3.12-1-3.38-1.51a2.37,2.37,0,0,1,.17-1.69,4.59,4.59,0,0,0,.45-1.69A8.29,8.29,0,0,0,52.32,97a13.4,13.4,0,0,1-2,4.27c-1.07,1.42-2.14,2.22-3.11,2.22A11.46,11.46,0,0,1,43,102.39c-1.69-.71-2.67-1.43-2.94-2-.88-2-1.33-9.51-1.33-22.58A4.42,4.42,0,0,1,38.37,76a2.1,2.1,0,0,1,1.06-2,3.06,3.06,0,0,1,1.16-.18,16.17,16.17,0,0,1,3.82.54,6.63,6.63,0,0,1,2.76,1.06.84.84,0,0,1,.26.63,4.41,4.41,0,0,1-.71,1.68A4.61,4.61,0,0,0,46,79.36q-.13,18.81.27,18.94c.44.17,1.6-1.34,3.37-4.45s2.67-5.42,2.67-7.11V77.85a2,2,0,0,1-.62-1.51,2.45,2.45,0,0,1,1.6-2.49c.09-.09.35-.09.53-.09a14.44,14.44,0,0,1,3.74.63A7.13,7.13,0,0,1,60.5,75.19Z"/>
<path d="M84.59,77.23s-.18.36-.53,1a4.38,4.38,0,0,0-.36,1v20.88q0,7.88-5.87,10.14a13.55,13.55,0,0,1-5,1.07,7.86,7.86,0,0,1-5.6-2.23,22.81,22.81,0,0,1-2.32-2.49l-.88-.88a1.55,1.55,0,0,1-.54-1.07c0-.45.45-.89,1.42-1.16.09,0,.36-.09.54-.09a9.76,9.76,0,0,1,2.49.45,4,4,0,0,1,2,1.07c.53.62,1.07,1.24,1.6,2a2.32,2.32,0,0,0,1.87,1.07c1.33.09,2.13-.8,2.49-2.67a31.14,31.14,0,0,0,.26-4.89c-.09.09-.35.53-.89,1.25a3.82,3.82,0,0,1-1,1.06,1.41,1.41,0,0,1-1.07.45A6.4,6.4,0,0,1,69,101.68C65.66,98.83,64,94.56,64,89.05a19.8,19.8,0,0,1,2.22-9.51c1.6-3,3.55-4.89,6.13-5.6a1.14,1.14,0,0,1,.54-.09,3,3,0,0,1,1.68.71c.54.45,1.07.8,1.6,1.25a11.29,11.29,0,0,1,.63-1.6,1.22,1.22,0,0,1,1-.89,9.41,9.41,0,0,1,3.56.62c1.69.53,2.67,1,2.84,1.33A2.22,2.22,0,0,1,84.59,77.23ZM76.14,89a44.92,44.92,0,0,0,.36-5.42c0-2.58-.44-4-1.24-4.35s-1.52.88-2.4,3.37a18.85,18.85,0,0,0-1.43,6.85,26.3,26.3,0,0,0,1.25,8.89A20.31,20.31,0,0,0,76.14,89Z"/>
<path d="M110.46,101.41a1.54,1.54,0,0,1-.54,1.15,1.15,1.15,0,0,1-1.15.36c-3.91-.53-6.14-1.24-6.58-2.22a.54.54,0,0,1-.09-.36,1.24,1.24,0,0,1,.18-.53.78.78,0,0,0,.27-.54.93.93,0,0,1,.17-.44,7.22,7.22,0,0,0,.09-1.69,9.08,9.08,0,0,0-1.69,2.31A12.36,12.36,0,0,1,99,102.3a4.69,4.69,0,0,1-3.47,1.42,3.24,3.24,0,0,1-2.22-.89A17.21,17.21,0,0,1,91.43,101c-1.51-1.69-2.31-2.66-2.49-2.84a3.87,3.87,0,0,1-1-2.49,2.43,2.43,0,0,1,.09-.8q.93-4.14,5.6-8a57.8,57.8,0,0,1,9.69-5.78c0-1-.27-1.69-.8-2-.36-.18-1.43.17-3.38,1.06a23,23,0,0,0-4,2.31c-.27.27-.71.63-1.25,1.07a1.6,1.6,0,0,1-1.51.27,10.5,10.5,0,0,1-2.22-1.69A7.33,7.33,0,0,1,88.32,80a1.65,1.65,0,0,1,.8-2s.71-.18,1.87-.53c1.15-.62,2.31-1.25,3.55-1.87a17.7,17.7,0,0,1,6.32-1.87,3.93,3.93,0,0,1,2.49,1.16c.8.71,1.68,1.42,2.48,2.13A28.65,28.65,0,0,0,108.41,79a3.8,3.8,0,0,1,1.51,2.58v18A5.72,5.72,0,0,1,110.46,101.41Zm-7.65-14a9.76,9.76,0,0,0-4,2.76l-2.49,3a9.51,9.51,0,0,0-1.86,2.58,5.18,5.18,0,0,0-.89,2.4c0,.26.09.35.26.35.71,0,2.14-1.42,4.45-4.35A31.49,31.49,0,0,0,102.81,87.45Z"/>
<path d="M132.77,77.14a1.2,1.2,0,0,1-.54,1.25,5.83,5.83,0,0,0-1.06.62c-2,3-4.71,7.2-8.18,12.35,0,5.07,0,7.65.09,7.83s.18.53.35,1.24a6,6,0,0,1,.27,1.51,1.28,1.28,0,0,1-.8,1.25,3.21,3.21,0,0,1-1.42.26,11.24,11.24,0,0,1-4-.8c-1.87-.62-2.76-1.42-2.76-2.4a4.45,4.45,0,0,1,.36-1.42,4,4,0,0,0,.35-1.6V78.39c-.35-1.78-.53-2.67-.53-2.76a1.77,1.77,0,0,1,1.33-1.87,5.62,5.62,0,0,1,1.43-.17,11.54,11.54,0,0,1,3.46.53c1.25.35,2,.71,2.14,1.15a.67.67,0,0,1,.09.45c0,.18-.27.89-.72,2.31v2.31c.8-1.33,1.52-2.75,2.23-4.09,1-1.69,1.69-2.58,2.22-2.75a5.17,5.17,0,0,1,3.2,1.24C131.7,75.72,132.59,76.52,132.77,77.14Z"/>
</g>
<path d="M49.37,48.37v7.89a16.86,16.86,0,0,1-.29,3.91,5.6,5.6,0,0,1-1.23,2.31A5.13,5.13,0,0,1,45.6,64a8.91,8.91,0,0,1-2.89.44,10,10,0,0,1-3.55-.51,5.6,5.6,0,0,1-2.24-1.52,5.82,5.82,0,0,1-1.16-2.17,14.14,14.14,0,0,1-.36-3.62V48.37A15.69,15.69,0,0,1,36,43.52a4.6,4.6,0,0,1,2.24-2.61,7.85,7.85,0,0,1,4.06-1,8.8,8.8,0,0,1,3.47.65,5.94,5.94,0,0,1,2.32,1.67,5.09,5.09,0,0,1,1,2.17A18,18,0,0,1,49.37,48.37Zm-5.86-2A8.23,8.23,0,0,0,43.29,44a.93.93,0,0,0-.87-.5.83.83,0,0,0-.87.5,8.23,8.23,0,0,0-.22,2.39V57.92a7.74,7.74,0,0,0,.22,2.46.89.89,0,0,0,.87.44.83.83,0,0,0,.87-.51,7.33,7.33,0,0,0,.22-2.24Z" fill="#fff"/>
<path d="M59.72,44.39v4a6.79,6.79,0,0,1-.29,2.39,2.93,2.93,0,0,1-1.3,1.37,5.28,5.28,0,0,1-2.61.58,5.76,5.76,0,0,1-2.82-.58,2.67,2.67,0,0,1-1.31-1.37A6.18,6.18,0,0,1,51,48.59V44.32a7.92,7.92,0,0,1,.36-2.61,2.82,2.82,0,0,1,1.38-1.37,5.17,5.17,0,0,1,2.53-.51,5.67,5.67,0,0,1,2.68.58,3.19,3.19,0,0,1,1.38,1.37A7.62,7.62,0,0,1,59.72,44.39ZM56,43.3a4.07,4.07,0,0,0-.07-1.16c-.07-.14-.22-.21-.51-.21s-.43.07-.5.21a3.11,3.11,0,0,0-.15,1.16v5.94a4.13,4.13,0,0,0,.08,1.23c.07.14.21.21.5.21a.57.57,0,0,0,.51-.21A3,3,0,0,0,56,49.38Zm10.64-3.4L57.33,64.44H55.09L64.35,39.9Zm4.06,15.92v4.06a6.73,6.73,0,0,1-.29,2.38,3,3,0,0,1-1.31,1.38,5.35,5.35,0,0,1-2.6.58,5.88,5.88,0,0,1-2.82-.58,2.92,2.92,0,0,1-1.31-1.38A6.14,6.14,0,0,1,62,60V55.75a7.8,7.8,0,0,1,.36-2.6,2.84,2.84,0,0,1,1.38-1.38,5.28,5.28,0,0,1,2.53-.51,6.19,6.19,0,0,1,2.75.58,2.83,2.83,0,0,1,1.38,1.38A8.53,8.53,0,0,1,70.65,55.82Zm-3.7-1a4.07,4.07,0,0,0-.07-1.16c-.07-.14-.21-.22-.5-.22s-.44.08-.51.22a3.11,3.11,0,0,0-.15,1.16v5.93A4,4,0,0,0,65.8,62c.07.15.21.22.5.22s.44-.07.51-.22a3.63,3.63,0,0,0,.07-1.08V54.81Z" fill="#fff"/>
<path d="M32.15,40.38v3.78H24.84v4a4.41,4.41,0,0,1,3.53-1.62,4.74,4.74,0,0,1,3.68,1.37c.84.91,1.25,2.66,1.25,5.24v3.38a20.21,20.21,0,0,1-.24,3.68,5.15,5.15,0,0,1-1,2.18,5,5,0,0,1-2.19,1.53,9.91,9.91,0,0,1-3.44.53,9.43,9.43,0,0,1-4-.8,4.79,4.79,0,0,1-2.46-2.37,12.14,12.14,0,0,1-.73-4.87V55.13h5.89v1.48a23.58,23.58,0,0,0,.16,3.25,1,1,0,0,0,1.11,1,1,1,0,0,0,.71-.28.94.94,0,0,0,.29-.6q0-.31.06-2.79V52.48a4.07,4.07,0,0,0-.28-1.81,1,1,0,0,0-.92-.48,1,1,0,0,0-.69.24,1.28,1.28,0,0,0-.36.54,6.71,6.71,0,0,0-.08,1.32H19.25l.24-11.91Z" fill="#fff"/>
<path d="M84.17,40.31V59.22H87.9V64H78V40.31Z" fill="#fff"/>
<path d="M89.39,40.31H99.64V45h-4.1v4.49h3.84V54H95.54v5.2h4.51V64H89.39Z" fill="#fff"/>
<path d="M114.84,47.47h-5.71V45.72a3.43,3.43,0,0,0-.22-1.57.8.8,0,0,0-.73-.33.93.93,0,0,0-.84.45,2.62,2.62,0,0,0-.28,1.37,3.84,3.84,0,0,0,.32,1.79,4.56,4.56,0,0,0,1.73,1.44q4.11,2.45,5.17,4a9.08,9.08,0,0,1,1.07,5,8.91,8.91,0,0,1-.59,3.72,4.62,4.62,0,0,1-2.29,2,9,9,0,0,1-3.94.81,8.73,8.73,0,0,1-4.21-.94A4.55,4.55,0,0,1,102,61.13a12.18,12.18,0,0,1-.54-4.1V55.48h5.7v2.88a3.85,3.85,0,0,0,.24,1.71,1,1,0,0,0,.86.38,1,1,0,0,0,.91-.48,2.78,2.78,0,0,0,.3-1.44,4.44,4.44,0,0,0-.57-2.73,18.94,18.94,0,0,0-2.87-2.14,26.76,26.76,0,0,1-3-2.21,5.14,5.14,0,0,1-1.24-1.89,8.52,8.52,0,0,1-.48-3.1,8.63,8.63,0,0,1,.69-4,4.63,4.63,0,0,1,2.24-2,8.82,8.82,0,0,1,3.74-.71,9.87,9.87,0,0,1,4.08.77,4.29,4.29,0,0,1,2.23,1.95,10.18,10.18,0,0,1,.55,4Z" fill="#fff"/>
<path d="M130.3,47.47h-5.71V45.72a3.43,3.43,0,0,0-.22-1.57.8.8,0,0,0-.73-.33.93.93,0,0,0-.84.45,2.62,2.62,0,0,0-.28,1.37,4,4,0,0,0,.32,1.79,4.54,4.54,0,0,0,1.74,1.44c2.73,1.63,4.46,3,5.17,4a9.18,9.18,0,0,1,1.06,5,8.91,8.91,0,0,1-.59,3.72,4.63,4.63,0,0,1-2.28,2,9.08,9.08,0,0,1-4,.81,8.73,8.73,0,0,1-4.21-.94,4.55,4.55,0,0,1-2.28-2.38A12.18,12.18,0,0,1,117,57V55.48h5.71v2.88a3.85,3.85,0,0,0,.24,1.71.93.93,0,0,0,.85.38,1,1,0,0,0,.91-.48,2.78,2.78,0,0,0,.3-1.44,4.44,4.44,0,0,0-.57-2.73,18.94,18.94,0,0,0-2.87-2.14,27.76,27.76,0,0,1-3-2.21,5,5,0,0,1-1.23-1.89,8.29,8.29,0,0,1-.49-3.1,8.63,8.63,0,0,1,.69-4,4.63,4.63,0,0,1,2.24-2,8.82,8.82,0,0,1,3.74-.71,9.8,9.8,0,0,1,4.08.77,4.29,4.29,0,0,1,2.23,1.95,10.18,10.18,0,0,1,.55,4Z" fill="#fff"/>
</g>
</g>
</svg>
