<svg xmlns="http://www.w3.org/2000/svg" version="1.1" x="0" y="0" viewBox="0 0 150 150" xml:space="preserve"><style type="text/css">
	.st0{display:none;}
	.st1{display:inline;}
	.st2{fill:#A6CC5F;}
	.st3{fill:#899F3D;}
</style><g id="Layer_1" class="st0"><g id="HXlIVA.tif" class="st1"><image width="1235" height="1235" id="Layer_0_1_" transform="matrix(0.247 0 0 0.247 -77.5 -62.0839)"/></g></g><g id="Layer_2"><path class="st2" d="M42 95.2l-20.4 32.5C8.3 114.1 0 95.5 0 75 0 33.6 33.6 0 75 0c21.3 0 40.5 8.8 54.1 23.1C61.7 5.3 16.8 55.3 42 95.2z"/></g><g id="Layer_3"><path class="st3" d="M150 75c0 41.4-33.6 75-75 75 -17.4 0-33.4-5.9-46.1-15.8 33.6-70.3 76.8-85.5 76.8-85.5s-33.3 25.5-53.5 57.5c11.5 15.3 71.6 25.8 87.7-68.9C146.3 48.4 150 61.3 150 75z"/></g></svg>