<svg xmlns="http://www.w3.org/2000/svg" xmlns:xlink="http://www.w3.org/1999/xlink" version="1.1" x="0" y="0" viewBox="0 0 150 150" xml:space="preserve" enable-background="new 0 0 150 150"><style type="text/css">
	.st0{fill:#FFFFFF;}
	.st1{fill:#4261A3;}
</style><g id="Layer_2"><path class="st0" d="M75 143c-37.5 0-68-30.5-68-68S37.5 7 75 7s68 30.5 68 68S112.5 143 75 143z"/><path class="st1" d="M75 14c33.6 0 61 27.4 61 61s-27.4 61-61 61 -61-27.4-61-61S41.4 14 75 14M75 0C33.6 0 0 33.6 0 75s33.6 75 75 75 75-33.6 75-75S116.4 0 75 0L75 0z"/></g><g id="Layer_1"><path id="flowRoot3061" class="st1" d="M94.8 37.1h10.1v44.2c0 7.7-0.9 13.8-2.6 18.3 -1.7 4.5-4.9 8.2-9.4 11.1 -4.5 2.8-10.4 4.2-17.7 4.2 -7.1 0-13-1.2-17.5-3.7 -4.5-2.5-7.8-6-9.7-10.7 -1.9-4.7-2.9-11.1-2.9-19.2V37.1h10.1v44.1c0 6.6 0.6 11.5 1.8 14.7 1.2 3.1 3.4 5.5 6.3 7.3 3 1.7 6.7 2.6 11 2.6 7.4 0 12.7-1.7 15.8-5.1 3.1-3.4 4.7-9.9 4.7-19.5V37.1"/></g></svg>