<?xml version="1.0" encoding="UTF-8"?>
<svg enable-background="new 0 0 441.9 148.1" version="1.1" viewBox="0 0 441.9 148.1" xml:space="preserve" xmlns="http://www.w3.org/2000/svg">
<style type="text/css">
	.st0{display:none;}
	.st1{display:inline;stroke:#FFFFFF;stroke-miterlimit:10;}
	.st2{fill:#FFFFFF;}
</style>
<g class="st0">
	<rect class="st1" x="-10.8" y="-6.6" width="472.1" height="168.2"/>
</g>
	<path class="st2" d="m184.1 97.3c-0.8 5.5-3 9.5-5 12.8l50.1-4.4 1.9-12.5s-4.2 3.4-9.9 3.9c-4 0.4-11.6 1-15.6 1.4l0.5-3.1 2.8-18.7 6.2-0.5c4.6-0.4 7.9 0.9 8.9 2.3l1.9-12.5-15.6 1.4 2.8-18.8 9.4-0.8c4.6-0.4 7.9 0.9 8.9 2.3l1.9-12.5-43.8 3.8c1.2 3 2.1 6.3 1.2 12.2l-6.6 43.7z"/>
	<path class="st2" d="m266.5 22.2l-9.5 62.5c-1.5 9.9-4.5 16.2-9.1 19.3l37.5-3.3c-3.5-3.5-4.9-8.5-3.4-18.2l9.5-62.5s3.1-0.3 9.4-0.9c6.3-0.5 11.4 0.1 14.7 4.9l3.4-21.8s-73.9 6.5-75.1 6.6l-3.3 21.9c6.5-5.8 12.5-7.3 16.6-7.6 4.1-0.4 9.3-0.9 9.3-0.9z"/>
	<path class="st2" d="m397 86.7h1l1.1 1.8h1l-1.2-2c0.3-0.1 0.5-0.3 0.7-0.5s0.3-0.5 0.3-0.9c0-0.5-0.2-0.9-0.5-1.2s-0.8-0.4-1.4-0.4h-1.8v5h0.9v-1.8zm0-2.5h0.8c0.4 0 0.7 0.1 0.9 0.2s0.3 0.4 0.3 0.7-0.1 0.5-0.3 0.6c-0.2 0.2-0.5 0.2-0.9 0.2h-0.8v-1.7z"/>
	<path class="st2" d="m291 65.3c-3.1 22.2 10.3 35.5 30.3 33.7 21.4-2 38-15 41.7-40.2 3-20.2-11.4-33.3-31.1-31.5-19.7 1.9-37.6 13.9-40.9 38zm39.3-27c19.5-1.9 12.4 47.9-7.5 49.8-17.9 1.7-14-47.8 7.5-49.8z"/>
	<path class="st2" d="m66.3 39.8s3.1-0.3 9.4-0.9c6.3-0.5 11.4 0.1 14.7 4.9l3.3-21.8s-73.9 6.5-75.1 6.6l-3.3 21.9c6.5-5.8 12.5-7.3 16.6-7.6 4.1-0.4 9.4-0.8 9.4-0.8l-9.5 62.5c-1.5 9.9-4.5 16.2-9.1 19.3l37.5-3.3c-3.5-3.5-4.9-8.5-3.4-18.2l9.5-62.6z"/>
	<path class="st2" d="m140.1 127c7.4-1 13.3-3.7 15.7-5.6 0 0-12.5 1-22.3-7.3l42.4-3.7 1.9-12.5s-4.2 3.4-9.9 3.9c-4.7 0.4-12.9 1.1-15.6 1.4l0.5-3.1 2.8-18.7 6.2-0.5c4.6-0.4 7.9 0.9 8.9 2.3l1.9-12.5-15.6 1.4 2.8-18.8 9.4-0.8c4.6-0.4 7.9 0.9 8.9 2.3l1.9-12.5-43.6 3.7c1.2 3 2.1 6.3 1.2 12.2l-6.6 43.7c-0.4 2.7-1.1 5-2 7.1-0.5-0.7-0.9-1.4-1.4-2.2-7.4-12.6-7.7-13.1-13.1-24 20.8-9.1 20.7-36.8-3.1-34.7-23.1 2-32.5 2.8-32.5 2.8l-1.9 0.2c1.2 3 2.1 6.3 1.2 12.2l-6.6 43.7c-0.8 5.5-3 9.5-5 12.8l28.1-2.5c-1.3-3-2-6.7-1.2-12.2l2.4-15.6c4.1 8.9 7.1 14.9 10.7 22.4 4.2 8.8 10.5 13.1 17 14.7 3.7 1.1 10.5 1.2 16.5 0.4zm-42.9-46.8l3.3-21.9 3.1-0.3c13.9-1.1 6.1 21.1-6.4 22.2z"/>
	<path class="st2" d="m405.4 22.3c-23.1 2-32.5 2.8-32.5 2.8l-1.9 0.2c1.2 3 2.1 6.3 1.2 12.2l-6.6 43.7c-0.8 5.5-3 9.5-5 12.8l28.1-2.5c-1.3-3-2-6.7-1.2-12.2 0.5-3.3 1.9-12.5 2.8-18.8 0.9 0 10.5-0.1 18.2-3.6 20.8-9 20.7-36.6-3.1-34.6zm-14.1 32.1l3.3-21.9 3.1-0.3c13.9-1.1 6 21.1-6.4 22.2z"/>
	<path class="st2" d="m396.1 90.3c0.6 0.3 1.2 0.4 1.9 0.4s1.3-0.1 1.9-0.4c0.6-0.2 1.1-0.6 1.5-1s0.8-0.9 1-1.5c0.3-0.6 0.4-1.2 0.4-1.8 0-0.7-0.1-1.3-0.4-1.9-0.2-0.6-0.6-1.1-1-1.5s-0.9-0.8-1.5-1c-0.6-0.3-1.2-0.4-1.9-0.4s-1.3 0.1-1.9 0.4c-0.6 0.2-1.1 0.6-1.5 1s-0.8 0.9-1 1.5-0.4 1.2-0.4 1.8 0.1 1.3 0.4 1.8c0.3 0.6 0.6 1.1 1 1.5 0.4 0.5 0.9 0.9 1.5 1.1zm-2.3-4.3c0-0.6 0.1-1.1 0.3-1.6s0.5-0.9 0.9-1.3 0.8-0.7 1.3-0.9 1-0.3 1.6-0.3 1.1 0.1 1.6 0.3 0.9 0.5 1.3 0.9 0.7 0.8 0.9 1.3 0.3 1 0.3 1.6-0.1 1.1-0.3 1.6-0.5 0.9-0.9 1.3-0.8 0.7-1.3 0.9-1 0.3-1.6 0.3-1.1-0.1-1.6-0.3-0.9-0.5-1.3-0.9-0.7-0.8-0.9-1.3c-0.1-0.6-0.3-1.1-0.3-1.6z"/>
	<path class="st2" d="m300.6 125.5c0.8-0.1 1.8-1 2.2-2.9l0.5-2.6c-0.2-0.2-0.7-0.3-1.1-0.2-1.7 0.1-2.9 2.2-2.8 4.1-0.1 1.1 0.4 1.7 1.2 1.6z"/>
	<path class="st2" d="m292.4 121.3c0-0.5-0.4-0.8-1.1-0.7-1.3 0.1-2.1 1.3-2.2 2.2 2.2-0.2 3.3-0.6 3.3-1.5z"/>
	<path class="st2" d="m379 112.7c0.1-0.3 0.1-0.7 0.1-1 0-1-0.5-1.8-1.6-1.7s-2 1.5-2 2.8c0 1 0.6 1.7 1.5 1.6 0.8-0.1 1.4-0.5 1.7-1 0.2-0.2 0.3-0.4 0.3-0.7z"/>
	<path class="st2" d="m387.9 118c1.4-0.1 2.1-1.7 2-2.9 0-1.1-0.7-1.7-1.6-1.6-0.8 0.1-1.4 0.6-1.8 1.3-0.1 0.2-0.2 0.5-0.2 0.7v0.7c0 1 0.5 1.8 1.6 1.8z"/>
	<path class="st2" d="m355.4 115.8c0-0.5-0.4-0.8-1.1-0.7-1.3 0.1-2.1 1.3-2.2 2.2 2.3-0.2 3.4-0.6 3.3-1.5z"/>
	<path class="st2" d="m398.8 116.9c1.9-0.2 2.8-5.1 2.7-6.8 0-0.9-0.2-2.2-1.3-2.1-1.9 0.2-2.8 4.9-2.8 6.8 0.1 0.9 0.2 2.2 1.4 2.1z"/>
	<path class="st2" d="m251.8 129.7c0.8-0.1 1.6-0.5 2.2-1.2 1-1.1 1.6-3.4 1.5-4.9 0-1.7-0.6-3.2-2.7-3-0.9 0.1-1.7 0.5-2.3 1.2-1 1.1-1.6 3.3-1.6 4.9 0.1 1.9 0.9 3.2 2.9 3z"/>
	<path class="st2" d="m201.2 134.3c1.5-0.1 2.4-2.5 2.3-4.1 0-0.9-0.4-1.8-1.5-1.7-1.6 0.1-2.4 2.6-2.4 4.1 0.1 1.1 0.6 1.8 1.6 1.7z"/>
	<path class="st2" d="m228.7 126.9c0-0.5-0.4-0.8-1.1-0.7-1.3 0.1-2.1 1.3-2.2 2.2 2.3-0.2 3.4-0.6 3.3-1.5z"/>
	<path class="st2" d="m423.7 97.8l-253 22.2c-9.9 9.4-23.4 15.1-38.3 14.9-4.6 0-9-0.7-13.3-1.7 9.6 9.2 26.7 13.6 50.4 11.6l241.4-21.2c1.7-11.1 6.3-19.6 12.8-25.8zm-241.4 37.9c0.7-0.1 1.1-0.2 1.4-0.4l0.5-2.9-2.1 0.2 0.4-2.3 4.8-0.4-1.2 7.1c-1 0.4-2.6 1-4.3 1.1-1.8 0.2-3.3-0.2-4.4-1.1-1.1-0.8-1.7-2.3-1.7-4 0-2.5 0.9-4.7 2.6-6.3 1.5-1.4 3.5-2.2 5.8-2.4 1.7-0.2 3 0.1 3.5 0.3l-0.8 2.5c-0.6-0.2-1.6-0.4-2.8-0.3-1.3 0.1-2.5 0.6-3.3 1.4-1.1 1-1.9 2.7-1.9 4.5 0.1 2.2 1.4 3.2 3.5 3zm13.4-6h-0.5c-1.8 0.2-2.6 1.9-2.9 3.8l-0.6 3.7-2.8 0.2 1-5.8c0.3-1.5 0.3-3.1 0.4-4l2.5-0.2c0 0.7-0.1 1.3-0.1 2h0.1c0.7-1.3 1.7-2.3 3-2.5h0.5l-0.6 2.8zm5.1 6.9c-2.4 0.2-4.1-1.2-4.1-3.7-0.1-3.3 2.2-6.3 5.6-6.6 2.6-0.2 4.1 1.4 4.1 3.6 0.1 3.6-2.2 6.4-5.6 6.7zm17-1.8l-2.7 0.2-0.3-3.3c-0.1-1-0.1-1.9-0.1-3.1-0.5 1.4-0.7 2.1-1.1 3.1l-1.6 3.6-2.7 0.2-1.1-9.6 2.9-0.3 0.1 4.1v3.1c0.3-1.1 0.7-2.1 1.1-3.1l1.8-4.4 2.3-0.2 0.3 4c0.1 1.1 0.1 2.1 0.1 3.1h0.1c0.3-1.1 0.6-2.1 1-3.3l1.6-4.2 2.8-0.2-4.5 10.3zm7.4-4.3c0 0.3 0.1 0.7 0.3 1 0.4 0.5 1 0.7 1.9 0.6 1-0.1 1.9-0.4 2.7-0.8l0.2 2c-1.1 0.7-2.5 1-3.6 1.1-2.7 0.2-4.2-1.2-4.2-3.7 0-2.9 2-6.2 5.5-6.5 1.9-0.2 3.4 0.8 3.4 2.6 0 2.3-2.3 3.4-6.2 3.7zm14.2-4.7h-0.5c-1.8 0.2-2.6 1.9-2.9 3.8l-0.6 3.7-2.8 0.2 1-5.8c0.3-1.5 0.3-3.1 0.4-4l2.5-0.2c0 0.7-0.1 1.3-0.1 2h0.1c0.7-1.3 1.7-2.3 3-2.5h0.5l-0.6 2.8zm16.8 4c-1.2 1.3-2.9 2.2-4.9 2.3-3.4 0.3-5.4-2-5.4-5.1 0-2.4 0.8-4.9 2.3-6.5 1.2-1.3 2.9-2.2 4.8-2.3 3.5-0.3 5.4 1.9 5.4 5.1 0.1 2.4-0.7 4.9-2.2 6.5zm13.7 0.5l-2.7 0.2-0.3-3.3c-0.1-1-0.1-1.9-0.1-3.1-0.5 1.4-0.7 2.1-1.1 3.1l-1.6 3.6-2.7 0.2-1.1-9.6 2.9-0.3 0.1 4.1v3.1c0.3-1.1 0.7-2.1 1.1-3.1l1.8-4.4 2.3-0.2 0.3 4c0.1 1.1 0.1 2.1 0.1 3.1h0.1c0.3-1.1 0.6-2.1 1-3.3l1.6-4.2 2.8-0.2-4.5 10.3zm14.3-6.9l-1 5.7-2.8 0.2 0.9-5.4c0.1-0.3 0.1-0.7 0.1-1.1 0-0.7-0.3-1.1-1-1.1-0.9 0.1-2 1.3-2.3 3.5l-0.7 4.4-2.8 0.2 1.1-6.6c0.2-1.2 0.4-2.3 0.5-3.2l2.5-0.2-0.2 1.6c0.9-1.3 2.1-2 3.3-2.1 1.6-0.1 2.5 0.8 2.5 2.4 0 0.5-0.1 1.2-0.1 1.7zm4.6 1.5c0 0.3 0.1 0.7 0.3 1 0.4 0.5 1 0.7 1.9 0.6 1-0.1 1.9-0.4 2.7-0.8l0.2 2c-1.1 0.7-2.5 1-3.6 1.1-2.7 0.2-4.2-1.2-4.2-3.7 0-2.9 2-6.2 5.5-6.5 1.9-0.2 3.4 0.8 3.4 2.6 0.1 2.3-2.3 3.4-6.2 3.7zm16.6-1.5c-0.2 1.2-0.4 2.6-0.4 3.8l-2.6 0.2 0.1-1.6c-0.8 1.4-2 2-3.1 2.1-1.6 0.1-3-1-3-3.4-0.1-3.4 2.3-6.7 5.9-7 0.4 0 0.9 0 1.3 0.1l0.8-4.4 2.8-0.2-1.8 10.4zm13.4-5.2c1.6 0.7 2.7 1.7 2.7 3.3 0 3-2.4 4.7-5.3 5-1.8 0.1-3.2-0.2-3.8-0.6l0.9-2.4c0.8 0.4 1.9 0.7 3.1 0.6 1.1-0.1 2.1-0.7 2.1-1.7 0-0.8-0.6-1.2-1.8-1.7-1.4-0.6-2.8-1.6-2.8-3.3 0-2.7 2.2-4.5 5.1-4.8 1.6-0.1 2.6 0.1 3.1 0.4l-0.8 2.4c-0.4-0.2-1.4-0.5-2.5-0.4-1.3 0.1-2 0.8-2 1.6 0 0.6 0.9 1.1 2 1.6zm7 7.2l-2.8 0.2 1.7-9.8 2.8-0.2-1.7 9.8zm0.6-11c-0.8 0.1-1.4-0.4-1.4-1.3 0-1 0.7-1.7 1.6-1.8 0.8-0.1 1.4 0.4 1.5 1.3 0 1.1-0.8 1.8-1.7 1.8zm12 4.3l-1 5.7-2.8 0.2 0.9-5.4c0.1-0.3 0.1-0.7 0.1-1.1 0-0.7-0.3-1.1-1-1.1-0.9 0.1-2 1.3-2.3 3.5l-0.7 4.4-2.8 0.2 1.1-6.6c0.2-1.2 0.4-2.3 0.5-3.2l2.5-0.2-0.2 1.6c0.9-1.3 2.1-2 3.3-2.1 1.6-0.1 2.5 0.8 2.5 2.4 0 0.5-0.1 1.2-0.1 1.7zm9.4-2.6c-0.3-0.1-0.7-0.2-1.3-0.1-2 0.2-3.2 2-3.2 3.8 0 1.3 0.9 1.9 1.9 1.8 0.8-0.1 1.4-0.3 1.9-0.6l0.1 2.2c-0.6 0.3-1.6 0.7-2.7 0.8-2.4 0.2-4.1-1.1-4.1-3.6-0.1-3.4 2.5-6.4 6.2-6.7 0.8-0.1 1.5 0 2 0.1l-0.8 2.3zm4.1 3.2c0 0.3 0.1 0.7 0.3 1 0.4 0.5 1 0.7 1.9 0.6 1-0.1 1.9-0.4 2.7-0.8l0.2 2c-1.1 0.7-2.5 1-3.6 1.1-2.7 0.2-4.2-1.2-4.2-3.7 0-2.9 2-6.2 5.5-6.5 1.9-0.2 3.4 0.8 3.4 2.6 0 2.4-2.3 3.5-6.2 3.7zm16.8 2.3l-2.7 0.2 1.7-10.3-2.5 1.3-0.1-2.2 3.5-1.9 2.3-0.2-2.2 13.1zm10.1-2.4c-1.3 1.2-3.1 1.9-4.8 2.1-0.7 0.1-1.1 0.1-1.5 0.1l0.3-2.4c0.3 0 0.7 0 1.2-0.1 0.9-0.2 1.8-0.5 2.5-1 0.9-0.7 1.6-1.5 2-2.5-0.6 0.7-1.6 1.1-2.4 1.1-2 0.2-3.4-1.1-3.5-3.2 0-2.8 2.2-5.4 5.1-5.6 2.8-0.2 4.2 1.6 4.2 4.1 0.1 3.1-1.4 5.8-3.1 7.4zm9 1c-2.9 0.3-4.3-1.6-4.3-4.1 0-2.9 1.3-5.6 3.1-7.1 1.4-1.3 3.3-2.1 5.2-2.3 0.5-0.1 0.8-0.1 1.1-0.1l-0.4 2.3c-0.3 0-0.6 0.1-1.1 0.1-2.3 0.4-3.8 1.8-4.5 3.4 0.7-0.7 1.6-1.1 2.6-1.2 1.9-0.2 3.3 1.2 3.3 3.3 0.1 2.7-2 5.4-5 5.7zm10.7-1c-2.7 0.2-3.7-1.7-3.8-4.3-0.1-4.1 1.9-8.8 5.9-9.2 2.7-0.2 3.7 1.8 3.7 4.1 0 4-1.8 9.1-5.8 9.4z"/>
</svg>