<svg version="1.1" id="Layer_1" xmlns="http://www.w3.org/2000/svg" xmlns:xlink="http://www.w3.org/1999/xlink" x="0px" y="0px"
	 viewBox="0 0 441.9 148.1" style="enable-background:new 0 0 441.9 148.1;" xml:space="preserve">
<style type="text/css">
	.st0{fill:#4D9D45;}
	.st1{fill:#FFFFFF;}
	.st2{fill:#D0202F;}
</style>
<path class="st0" d="M184.1,97.3c-0.8,5.5-3,9.5-5,12.8l50.1-4.4l1.9-12.5c0,0-4.2,3.4-9.9,3.9c-4,0.4-11.6,1-15.6,1.4l0.5-3.1
	l2.8-18.7l6.2-0.5c4.6-0.4,7.9,0.9,8.9,2.3l1.9-12.5l-15.6,1.4l2.8-18.8l9.4-0.8c4.6-0.4,7.9,0.9,8.9,2.3l1.9-12.5l-43.8,3.8
	c1.2,3,2.1,6.3,1.2,12.2L184.1,97.3z M266.5,22.2L257,84.7c-1.5,9.9-4.5,16.2-9.1,19.3l37.5-3.3c-3.5-3.5-4.9-8.5-3.4-18.2l9.5-62.5
	c0,0,3.1-0.3,9.4-0.9c6.3-0.5,11.4,0.1,14.7,4.9L319,2.2c0,0-73.9,6.5-75.1,6.6l-3.3,21.9c6.5-5.8,12.5-7.3,16.6-7.6
	C261.3,22.7,266.5,22.2,266.5,22.2z M397,86.7h1l1.1,1.8h1l-1.2-2c0.3-0.1,0.5-0.3,0.7-0.5s0.3-0.5,0.3-0.9c0-0.5-0.2-0.9-0.5-1.2
	c-0.3-0.3-0.8-0.4-1.4-0.4h-1.8v5h0.9v-1.8H397z M397,84.2h0.8c0.4,0,0.7,0.1,0.9,0.2c0.2,0.1,0.3,0.4,0.3,0.7
	c0,0.3-0.1,0.5-0.3,0.6c-0.2,0.2-0.5,0.2-0.9,0.2H397V84.2z M291,65.3c-3.1,22.2,10.3,35.5,30.3,33.7c21.4-2,38-15,41.7-40.2
	c3-20.2-11.4-33.3-31.1-31.5C312.2,29.2,294.3,41.2,291,65.3z M330.3,38.3c19.5-1.9,12.4,47.9-7.5,49.8
	C304.9,89.8,308.8,40.3,330.3,38.3z M66.3,39.8c0,0,3.1-0.3,9.4-0.9c6.3-0.5,11.4,0.1,14.7,4.9L93.7,22c0,0-73.9,6.5-75.1,6.6
	l-3.3,21.9c6.5-5.8,12.5-7.3,16.6-7.6c4.1-0.4,9.4-0.8,9.4-0.8l-9.5,62.5c-1.5,9.9-4.5,16.2-9.1,19.3l37.5-3.3
	c-3.5-3.5-4.9-8.5-3.4-18.2L66.3,39.8z M140.1,127c7.4-1,13.3-3.7,15.7-5.6c0,0-12.5,1-22.3-7.3l42.4-3.7l1.9-12.5
	c0,0-4.2,3.4-9.9,3.9c-4.7,0.4-12.9,1.1-15.6,1.4l0.5-3.1l2.8-18.7l6.2-0.5c4.6-0.4,7.9,0.9,8.9,2.3l1.9-12.5L157,72.1l2.8-18.8
	l9.4-0.8c4.6-0.4,7.9,0.9,8.9,2.3l1.9-12.5L136.4,46c1.2,3,2.1,6.3,1.2,12.2l-6.6,43.7c-0.4,2.7-1.1,5-2,7.1
	c-0.5-0.7-0.9-1.4-1.4-2.2c-7.4-12.6-7.7-13.1-13.1-24c20.8-9.1,20.7-36.8-3.1-34.7c-23.1,2-32.5,2.8-32.5,2.8L77,51.1
	c1.2,3,2.1,6.3,1.2,12.2L71.6,107c-0.8,5.5-3,9.5-5,12.8l28.1-2.5c-1.3-3-2-6.7-1.2-12.2c0.8-5.2,2.4-15.6,2.4-15.6
	c4.1,8.9,7.1,14.9,10.7,22.4c4.2,8.8,10.5,13.1,17,14.7C127.3,127.7,134.1,127.8,140.1,127z M97.2,80.2l3.3-21.9l3.1-0.3
	C117.5,56.9,109.7,79.1,97.2,80.2z M405.4,22.3c-23.1,2-32.5,2.8-32.5,2.8l-1.9,0.2c1.2,3,2.1,6.3,1.2,12.2l-6.6,43.7
	c-0.8,5.5-3,9.5-5,12.8l28.1-2.5c-1.3-3-2-6.7-1.2-12.2c0.5-3.3,1.9-12.5,2.8-18.8c0.9,0,10.5-0.1,18.2-3.6
	C429.3,47.9,429.2,20.3,405.4,22.3z M391.3,54.4l3.3-21.9l3.1-0.3C411.6,31.1,403.7,53.3,391.3,54.4z M396.1,90.3
	c0.6,0.3,1.2,0.4,1.9,0.4c0.7,0,1.3-0.1,1.9-0.4c0.6-0.2,1.1-0.6,1.5-1s0.8-0.9,1-1.5c0.3-0.6,0.4-1.2,0.4-1.8
	c0-0.7-0.1-1.3-0.4-1.9c-0.2-0.6-0.6-1.1-1-1.5s-0.9-0.8-1.5-1c-0.6-0.3-1.2-0.4-1.9-0.4c-0.7,0-1.3,0.1-1.9,0.4
	c-0.6,0.2-1.1,0.6-1.5,1s-0.8,0.9-1,1.5s-0.4,1.2-0.4,1.8c0,0.6,0.1,1.3,0.4,1.8c0.3,0.6,0.6,1.1,1,1.5
	C395,89.7,395.5,90.1,396.1,90.3z M393.8,86c0-0.6,0.1-1.1,0.3-1.6c0.2-0.5,0.5-0.9,0.9-1.3s0.8-0.7,1.3-0.9c0.5-0.2,1-0.3,1.6-0.3
	s1.1,0.1,1.6,0.3c0.5,0.2,0.9,0.5,1.3,0.9s0.7,0.8,0.9,1.3c0.2,0.5,0.3,1,0.3,1.6s-0.1,1.1-0.3,1.6c-0.2,0.5-0.5,0.9-0.9,1.3
	s-0.8,0.7-1.3,0.9c-0.5,0.2-1,0.3-1.6,0.3s-1.1-0.1-1.6-0.3c-0.5-0.2-0.9-0.5-1.3-0.9s-0.7-0.8-0.9-1.3C394,87,393.8,86.5,393.8,86z
	"/>
<polygon class="st1" points="182.2,132.7 182.2,132.7 184.2,132.5 184.2,132.5 "/>
<path class="st1" d="M180.7,128.2c0.9-0.8,2-1.2,3.3-1.4c0.9-0.1,1.7,0,2.3,0.1c-0.6-0.1-1.4-0.2-2.3-0.1
	C182.7,126.9,181.6,127.4,180.7,128.2c-1.1,1-1.9,2.7-1.9,4.5c0,1.7,0.8,2.7,2,3c-1.3-0.3-2-1.3-2-3
	C178.8,130.8,179.6,129.2,180.7,128.2z M186.9,127.1L186.9,127.1l0.8-2.5c-0.1-0.1-0.3-0.1-0.5-0.2c0.2,0,0.4,0.1,0.5,0.2
	L186.9,127.1z M181.9,138.1c-0.9,0.1-1.7,0-2.5-0.1C180.2,138.2,181,138.2,181.9,138.1c1.7-0.1,3.3-0.7,4.3-1.1l1.2-7.1l0,0
	l-1.2,7.1C185.2,137.4,183.6,138,181.9,138.1z M195.7,129.7c-0.1,0-0.3,0-0.5,0c-1.8,0.2-2.6,1.9-2.9,3.8l-0.6,3.7l-2.8,0.2l0,0
	l2.8-0.2l0.6-3.7c0.3-1.9,1.1-3.6,2.9-3.8C195.4,129.7,195.6,129.7,195.7,129.7l0.5-2.8l0,0L195.7,129.7z M192.6,129.4
	c0.1-0.7,0.1-1.3,0.1-2l0,0C192.7,128,192.7,128.7,192.6,129.4L192.6,129.4z M203.7,126.4c1.8,0.4,2.8,1.8,2.8,3.6
	c0.1,3.5-2.3,6.3-5.6,6.6c-0.6,0.1-1.2,0-1.7-0.1c0.5,0.1,1.1,0.2,1.7,0.1c3.3-0.3,5.7-3.1,5.6-6.6
	C206.5,128.1,205.5,126.7,203.7,126.4z"/>
<polygon class="st1" points="217.8,134.8 215.2,135.1 215.2,135.1 217.8,134.8 222.4,124.8 222.4,124.8 "/>
<path class="st1" d="M216.9,132.4L216.9,132.4c0-1.1,0-2-0.1-3.1l-0.3-4l0,0l0.3,4C216.9,130.5,216.9,131.4,216.9,132.4z
	 M214.7,128.7c-0.5,1.4-0.7,2.1-1.1,3.1l-1.6,3.6l-2.7,0.2l0,0l2.7-0.2l1.6-3.6C214,130.8,214.2,130.1,214.7,128.7L214.7,128.7
	L214.7,128.7L214.7,128.7z M211.2,132.9L211.2,132.9c0-1.1,0.1-2,0.1-3.1l-0.1-4.1l0,0l0.1,4.1C211.3,130.9,211.2,131.9,211.2,132.9
	z M229.4,124.1c1.2,0.3,2,1.2,2,2.5c0,2.5-2.3,3.5-6.2,3.8c0,0.3,0.1,0.7,0.3,1c0.2,0.2,0.5,0.4,0.8,0.5c-0.3-0.1-0.6-0.3-0.8-0.5
	c-0.2-0.3-0.3-0.7-0.3-1c3.9-0.2,6.2-1.3,6.2-3.8C231.4,125.3,230.6,124.4,229.4,124.1z M226.7,134.3c-0.7,0.1-1.3,0-1.8-0.1
	C225.4,134.3,226,134.3,226.7,134.3c1.1-0.1,2.5-0.4,3.6-1.1l-0.2-2l0,0l0.2,2C229.2,133.9,227.8,134.2,226.7,134.3z M239.4,125.8
	c-0.1,0-0.3,0-0.5,0c-1.8,0.2-2.6,1.9-2.9,3.8l-0.6,3.7l-2.8,0.2l0,0l2.8-0.2l0.6-3.7c0.3-1.9,1.1-3.6,2.9-3.8
	C239.1,125.9,239.3,125.8,239.4,125.8l0.5-2.8l0,0L239.4,125.8z M236.3,125.5c0.1-0.7,0.1-1.3,0.1-2l0,0
	C236.4,124.2,236.4,124.8,236.3,125.5L236.3,125.5z M254.9,118.3c2.3,0.5,3.6,2.4,3.6,5c0,2.4-0.8,4.9-2.3,6.5
	c-1.2,1.3-2.9,2.2-4.9,2.3c-0.6,0.1-1.2,0-1.8-0.1c0.5,0.1,1.1,0.1,1.8,0.1c2-0.2,3.6-1,4.9-2.3c1.5-1.6,2.3-4.1,2.3-6.5
	C258.5,120.7,257.2,118.8,254.9,118.3z"/>
<polygon class="st1" points="269.9,130.3 267.2,130.5 267.2,130.5 269.9,130.3 274.4,120.2 274.4,120.2 "/>
<path class="st1" d="M263.2,128.4L263.2,128.4c0-1.1,0.1-2,0.1-3.1l-0.1-4.1l0,0l0.1,4.1C263.3,126.4,263.3,127.3,263.2,128.4z
	 M266.7,124.1c-0.5,1.4-0.7,2.1-1.1,3.1l-1.6,3.6l-2.7,0.2l0,0l2.7-0.2l1.6-3.6C266,126.2,266.2,125.5,266.7,124.1L266.7,124.1
	L266.7,124.1L266.7,124.1z M268.9,127.9L268.9,127.9c0-1.1,0-2-0.1-3.1l-0.3-4l0,0l0.3,4C268.9,125.9,268.9,126.8,268.9,127.9z"/>
<polygon class="st1" points="278.4,121.5 278.6,119.8 278.6,119.8 "/>
<path class="st1" d="M280.4,121.8c-0.9,0.1-2,1.3-2.3,3.5l-0.7,4.4l-2.8,0.2l0,0l2.8-0.2l0.7-4.4
	C278.4,123.1,279.5,121.8,280.4,121.8c0.2,0,0.3,0,0.5,0C280.7,121.8,280.6,121.7,280.4,121.8z M282.8,119.4
	c0.9,0.3,1.4,1.1,1.5,2.3c0,0.4-0.1,1.2-0.1,1.6l-1,5.7l-2.8,0.2l0,0l2.8-0.2l1-5.7c0.1-0.5,0.1-1.2,0.1-1.6
	C284.3,120.5,283.8,119.7,282.8,119.4z M293,118.6c1.2,0.3,2,1.2,2,2.5c0,2.5-2.3,3.5-6.2,3.8c0,0.3,0.1,0.7,0.3,1
	c0.2,0.2,0.5,0.4,0.8,0.5c-0.3-0.1-0.6-0.3-0.8-0.5c-0.2-0.3-0.3-0.7-0.3-1c3.9-0.2,6.2-1.3,6.2-3.8
	C295,119.7,294.2,118.9,293,118.6z M290.4,128.7c-0.7,0.1-1.3,0-1.8-0.1C289.1,128.7,289.7,128.8,290.4,128.7
	c1.1-0.1,2.5-0.4,3.6-1.1l-0.2-2l0,0l0.2,2C292.8,128.3,291.4,128.6,290.4,128.7z M305.4,123.4c-0.2,1.2-0.4,2.6-0.4,3.8l-2.6,0.2
	l0,0l2.6-0.2C305.1,126.1,305.2,124.7,305.4,123.4l1.8-10.4l0,0L305.4,123.4z M302.5,125.9c-0.8,1.4-2,2-3.1,2.1c-0.2,0-0.4,0-0.6,0
	c0.2,0,0.4,0,0.6,0C300.5,127.8,301.7,127.2,302.5,125.9L302.5,125.9L302.5,125.9L302.5,125.9z M313.3,123.4L313.3,123.4
	c0.4,0.2,0.9,0.4,1.4,0.5C314.1,123.8,313.7,123.6,313.3,123.4z M321.3,115.3L321.3,115.3l0.9-2.4c-0.2-0.1-0.5-0.2-0.8-0.3
	c0.3,0.1,0.6,0.2,0.8,0.3L321.3,115.3z M318.8,114.9c0.7-0.1,1.3,0,1.8,0.1C320.1,114.9,319.5,114.8,318.8,114.9
	c-1.3,0.1-2,0.8-2,1.6c0,0.8,0.8,1.2,2,1.7c1.6,0.7,2.7,1.7,2.7,3.3c0,3-2.4,4.7-5.3,5c-1.2,0.1-2.1,0-2.8-0.2
	c0.7,0.2,1.7,0.3,2.8,0.2c2.9-0.3,5.4-2,5.3-5c0-1.6-1.1-2.6-2.7-3.3c-1.1-0.5-1.9-1-2-1.7C316.8,115.7,317.5,115,318.8,114.9z
	 M327.2,111.5c0.5,0.2,0.9,0.6,0.9,1.2c0,1-0.7,1.7-1.6,1.7l0,0c-0.2,0-0.4,0-0.5-0.1c0.2,0.1,0.3,0.1,0.5,0.1l0,0
	c0.9-0.1,1.7-0.7,1.6-1.7C328.1,112.1,327.7,111.6,327.2,111.5z"/>
<polygon class="st1" points="325.8,125.4 323,125.6 323,125.6 325.8,125.4 327.5,115.6 327.5,115.6 "/>
<path class="st1" d="M334.6,117c-0.9,0.1-2,1.3-2.3,3.5l-0.7,4.4l-2.8,0.2l0,0l2.8-0.2l0.7-4.4C332.6,118.4,333.7,117.1,334.6,117
	c0.2,0,0.3,0,0.5,0C334.9,117,334.8,117,334.6,117z M337,114.7c0.9,0.3,1.4,1.1,1.5,2.3c0,0.4-0.1,1.2-0.1,1.6l-1,5.7l-2.8,0.2l0,0
	l2.8-0.2l1-5.7c0.1-0.5,0.1-1.2,0.1-1.6C338.5,115.8,337.9,114.9,337,114.7z"/>
<polygon class="st1" points="332.6,116.7 332.8,115.1 332.8,115.1 "/>
<path class="st1" d="M344.4,123.9c-0.6,0.1-1.1,0-1.6-0.1C343.3,124,343.8,124,344.4,123.9c1.1-0.1,2.1-0.4,2.7-0.8l-0.1-2.2l0,0
	l0.1,2.1C346.5,123.5,345.5,123.8,344.4,123.9z M346.5,115.9c-2,0.2-3.2,2-3.2,3.8c0,1,0.5,1.6,1.2,1.8c-0.7-0.2-1.2-0.8-1.2-1.8
	C343.2,118,344.5,116.1,346.5,115.9c0.4,0,0.8,0,1,0.1C347.2,115.9,346.9,115.9,346.5,115.9z"/>
<polygon class="st1" points="347.8,116.1 347.8,116.1 348.4,113.8 348.4,113.8 "/>
<path class="st1" d="M356.1,113c1.2,0.3,2,1.2,2,2.5c0,2.5-2.3,3.5-6.2,3.8c0,0.3,0.1,0.7,0.3,1c0.2,0.2,0.5,0.4,0.8,0.5
	c-0.3-0.1-0.6-0.3-0.8-0.5c-0.2-0.3-0.3-0.7-0.3-1c3.9-0.2,6.2-1.3,6.2-3.8C358.1,114.2,357.3,113.3,356.1,113z M353.4,123.2
	c-0.7,0.1-1.3,0-1.8-0.1C352.1,123.2,352.7,123.2,353.4,123.2c1.1-0.1,2.5-0.4,3.6-1.1l-0.2-2l0,0l0.2,2
	C355.9,122.8,354.5,123.1,353.4,123.2z"/>
<polygon class="st1" points="367.7,111.5 365.2,112.8 365.2,112.8 367.7,111.5 367.7,111.5 "/>
<polygon class="st1" points="368.7,121.6 366,121.9 366,121.9 368.7,121.6 370.9,108.6 370.9,108.6 "/>
<path class="st1" d="M376.1,116.5c-0.5,0-1,0-1.4-0.1C375.1,116.5,375.6,116.6,376.1,116.5c0.9-0.1,1.8-0.5,2.4-1.1l0,0
	C377.9,116.1,377,116.4,376.1,116.5z M379.2,107.8c1.8,0.4,2.7,2,2.8,4.1c0,3-1.5,5.8-3.1,7.3c-1.3,1.2-3.1,1.9-4.8,2.1
	c-0.7,0.1-1.1,0.1-1.5,0.1l0,0c0.4,0,0.7,0,1.5-0.1c1.7-0.2,3.5-1,4.8-2.1c1.7-1.5,3.2-4.3,3.1-7.3
	C381.9,109.8,381,108.2,379.2,107.8z M390.2,111.2c0.1,0,0.1,0,0.2,0C390.3,111.2,390.2,111.2,390.2,111.2z M391.3,108.9
	c-2.3,0.4-3.8,1.8-4.5,3.4l0,0l0,0l0,0C387.5,110.8,389,109.4,391.3,108.9c0.4-0.1,0.8-0.1,1.1-0.1l0.4-2.3l0,0l-0.4,2.3
	C392.1,108.8,391.7,108.9,391.3,108.9z M390.8,111.3c1.2,0.4,2,1.6,2,3.2c0,2.7-2,5.4-5,5.7c-0.5,0-1,0-1.5-0.1
	c0.4,0.1,0.9,0.1,1.5,0.1c3-0.3,5.1-2.9,5-5.7C392.8,112.9,392,111.7,390.8,111.3z M401.9,105.8c1.7,0.4,2.4,2.1,2.4,4
	c0.1,4-1.8,9-5.8,9.4c-0.5,0-0.9,0-1.3-0.1c0.4,0.1,0.8,0.1,1.3,0.1c4-0.4,5.9-5.4,5.8-9.4C404.2,108,403.6,106.3,401.9,105.8z
	 M245.9,127c0-2.4,0.8-4.9,2.3-6.5c1.2-1.3,2.9-2.2,4.8-2.3c0.7-0.1,1.3,0,1.8,0.1c-0.5-0.1-1.1-0.1-1.8-0.1c-1.9,0.2-3.6,1-4.8,2.3
	C246.7,122.2,245.9,124.6,245.9,127c0,2.5,1.3,4.5,3.7,5C247.3,131.5,246,129.6,245.9,127z M251.4,132.1c2-0.2,3.6-1,4.9-2.3
	c1.5-1.6,2.3-4.1,2.3-6.5c0-2.6-1.3-4.5-3.6-5c-0.5-0.1-1.1-0.1-1.8-0.1c-1.9,0.2-3.6,1-4.8,2.3c-1.5,1.6-2.4,4.1-2.3,6.5
	c0,2.5,1.3,4.5,3.7,5C250.2,132.1,250.7,132.2,251.4,132.1z M248.9,126.7c0-1.6,0.5-3.7,1.6-4.9c0.6-0.7,1.4-1.1,2.3-1.2
	c2.1-0.2,2.7,1.4,2.7,3c0,1.5-0.5,3.8-1.5,4.9c-0.6,0.7-1.4,1.1-2.2,1.2C249.8,129.9,249,128.6,248.9,126.7z M278.4,121.5
	c0.9-1.3,2.1-2,3.3-2.1c0.4,0,0.7,0,1,0.1c-0.3-0.1-0.7-0.1-1.1-0.1C280.5,119.5,279.3,120.1,278.4,121.5L278.4,121.5L278.4,121.5
	L278.4,121.5z M281.4,122.8c0-0.5-0.1-0.9-0.5-1C281.2,121.9,281.3,122.3,281.4,122.8c0,0.4,0,0.7-0.1,1.1l-0.9,5.4l0,0l0.9-5.4
	C281.3,123.6,281.4,123.2,281.4,122.8z M276.1,120.1l2.5-0.2l0,0L276.1,120.1c-0.1,0.9-0.3,1.9-0.5,3.2l-1.1,6.6l0,0l1.1-6.6
	C275.8,122,275.9,120.9,276.1,120.1z M284.2,123.4c0.1-0.5,0.1-1.2,0.1-1.6c0-1.3-0.5-2.1-1.5-2.3c-0.3-0.1-0.7-0.1-1-0.1
	c-1.3,0.1-2.4,0.8-3.3,2.1l0,0l0,0l0,0l0.2-1.6l-2.5,0.2c-0.1,0.9-0.2,1.9-0.5,3.2l-1.1,6.6l2.8-0.2l0.7-4.4
	c0.4-2.2,1.4-3.4,2.3-3.5c0.2,0,0.3,0,0.5,0c0.4,0.1,0.5,0.5,0.5,1c0,0.4,0,0.7-0.1,1.1l-0.9,5.4l2.8-0.2L284.2,123.4z M266.8,124.1
	L266.8,124.1c0,1.1,0,2.1,0.1,3.1l0.3,3.3l0,0l-0.3-3.3C266.8,126.2,266.8,125.2,266.8,124.1z"/>
<polygon class="st1" points="263.2,121.2 263.2,121.2 260.3,121.4 261.4,131 261.4,131 260.3,121.4 "/>
<path class="st1" d="M263.3,128.4c0.3-1.1,0.7-2.1,1.1-3.1l1.8-4.4l2.3-0.2l0,0l-2.3,0.2l-1.8,4.4
	C264,126.3,263.6,127.3,263.3,128.4L263.3,128.4L263.3,128.4L263.3,128.4z M269,127.9c0.3-1.1,0.6-2.1,1-3.3l1.6-4.2l2.8-0.2l0,0
	l-2.8,0.2l-1.6,4.2C269.6,125.8,269.2,126.8,269,127.9L269,127.9L269,127.9L269,127.9z M274.4,120.2l-2.8,0.2l-1.6,4.2
	c-0.4,1.2-0.7,2.2-1,3.3h-0.1l0,0l0,0c0-1.1,0-2-0.1-3.1l-0.3-4l-2.3,0.2l-1.8,4.4c-0.4,1-0.8,2-1.1,3.1l0,0l0,0l0,0
	c0-1.1,0.1-2,0-3.1l-0.1-4.1l-2.9,0.3l1.1,9.6l2.7-0.2l1.6-3.6c0.4-0.9,0.6-1.7,1.1-3.1l0,0l0,0l0,0c0,1.1,0,2.1,0.1,3.1l0.3,3.3
	l2.6-0.2L274.4,120.2z M296.4,124.5c-0.1-3.4,2.3-6.7,5.9-7c0.4,0,0.9,0,1.3,0.1l0.8-4.4l2.8-0.2l0,0l-2.8,0.2l-0.8,4.4
	c-0.4-0.1-0.9-0.2-1.3-0.1C298.7,117.8,296.3,121.2,296.4,124.5c0,2.1,1.1,3.2,2.4,3.4C297.4,127.7,296.4,126.6,296.4,124.5z"/>
<polygon class="st1" points="302.5,125.9 302.4,127.4 302.4,127.4 302.6,125.9 "/>
<path class="st1" d="M305.4,123.4l1.8-10.4l-2.8,0.2l-0.8,4.4c-0.4-0.1-0.9-0.2-1.3-0.1c-3.6,0.3-6,3.6-5.9,7c0,2.1,1.1,3.2,2.4,3.4
	c0.2,0,0.4,0,0.6,0c1.1-0.1,2.3-0.7,3.1-2.1l0,0l0,0l0,0l-0.1,1.6l2.6-0.2C305,126,305.2,124.7,305.4,123.4z M302.8,122.6
	c-0.3,1.9-1.3,2.8-2.2,2.9c-0.8,0.1-1.3-0.5-1.3-1.7c0-1.9,1.1-3.9,2.8-4.1c0.5,0,0.9,0.1,1.1,0.2L302.8,122.6z M286.1,125
	c0-2.9,2-6.2,5.5-6.5c0.5,0,0.9,0,1.3,0.1c-0.4-0.1-0.9-0.1-1.3-0.1C288.2,118.8,286.1,122,286.1,125c0,1.9,0.8,3.2,2.4,3.6
	C287,128.2,286.2,126.9,286.1,125z M291,126.4c1-0.1,1.9-0.4,2.7-0.8l0,0C292.9,126,292.1,126.3,291,126.4c-0.4,0-0.8,0-1.1-0.1
	C290.2,126.4,290.6,126.5,291,126.4z M288.8,124.9c3.9-0.2,6.2-1.3,6.2-3.8c0-1.3-0.8-2.2-2-2.5c-0.4-0.1-0.9-0.1-1.3-0.1
	c-3.5,0.3-5.5,3.6-5.5,6.5c0,1.9,0.8,3.2,2.4,3.6c0.5,0.1,1.1,0.2,1.8,0.1c1.1-0.1,2.5-0.4,3.6-1.1l-0.2-2c-0.8,0.4-1.6,0.8-2.7,0.8
	c-0.4,0-0.8,0-1.1-0.1c-0.3-0.1-0.6-0.3-0.8-0.5C289,125.6,288.9,125.2,288.8,124.9z M291.3,120.6c0.6-0.1,1,0.2,1.1,0.7
	c0,0.9-1.1,1.3-3.3,1.5C289.3,121.9,290,120.7,291.3,120.6z M182.3,135.7c0.7-0.1,1.1-0.2,1.4-0.4l0.5-2.9l0,0l-0.5,2.9
	C183.4,135.5,183,135.6,182.3,135.7c-0.5,0-1,0-1.4-0.1C181.3,135.7,181.8,135.7,182.3,135.7z M175.7,133.1c0-2.5,0.9-4.7,2.6-6.3
	c1.5-1.4,3.5-2.2,5.8-2.4c1.3-0.1,2.3,0,3,0.1c-0.7-0.1-1.7-0.2-3-0.1c-2.3,0.2-4.3,1.1-5.8,2.4
	C176.7,128.4,175.7,130.6,175.7,133.1c0,1.7,0.7,3.1,1.7,4c0.5,0.4,1.2,0.8,1.9,0.9c-0.7-0.2-1.4-0.5-1.9-0.9
	C176.4,136.2,175.8,134.8,175.7,133.1z"/>
<polygon class="st1" points="187.4,129.9 187.4,129.9 182.6,130.3 182.2,132.7 182.2,132.7 182.6,130.3 "/>
<path class="st1" d="M186.9,127.1L186.9,127.1c-0.1-0.1-0.3-0.1-0.5-0.2C186.5,127,186.7,127,186.9,127.1z M178.8,132.6
	c0-1.8,0.7-3.5,1.9-4.5c0.9-0.8,2-1.2,3.3-1.4c0.9-0.1,1.7,0,2.3,0.1c0.2,0,0.4,0.1,0.5,0.2l0.8-2.5c-0.1-0.1-0.3-0.1-0.5-0.2
	c-0.7-0.1-1.7-0.2-3-0.1c-2.3,0.2-4.3,1.1-5.8,2.4c-1.7,1.6-2.6,3.8-2.6,6.3c0,1.7,0.7,3.1,1.7,4c0.5,0.4,1.2,0.8,1.9,0.9
	c0.7,0.2,1.6,0.2,2.5,0.1c1.7-0.1,3.3-0.7,4.3-1.1l1.2-7.1l-4.8,0.4l-0.4,2.3l2.1-0.2l0,0l0,0l-0.5,2.9c-0.3,0.2-0.8,0.3-1.4,0.4
	c-0.5,0-1,0-1.4-0.1C179.6,135.3,178.9,134.3,178.8,132.6z M190.3,127.6l2.4-0.2l0,0L190.3,127.6c-0.1,0.8-0.2,2.5-0.4,4l-1,5.8l0,0
	l1-5.8C190.1,130.1,190.2,128.4,190.3,127.6z M192.7,129.4c0.7-1.3,1.7-2.3,3-2.5c0.2,0,0.3,0,0.5,0l0,0c-0.2,0-0.4,0-0.5,0
	C194.4,127,193.3,128,192.7,129.4L192.7,129.4L192.7,129.4L192.7,129.4z M192.3,133.5c0.3-1.9,1.1-3.6,2.9-3.8c0.2,0,0.3,0,0.5,0
	l0.5-2.8c-0.2,0-0.3,0-0.5,0c-1.3,0.1-2.4,1.1-3,2.5h-0.1l0,0l0,0c0.1-0.7,0.1-1.3,0.1-2l-2.4,0.2c-0.1,0.8-0.2,2.5-0.4,4l-1,5.8
	l2.8-0.2L192.3,133.5z M196.7,132.9c-0.1-3.3,2.2-6.3,5.6-6.6c0.5,0,0.9,0,1.3,0.1c-0.4-0.1-0.9-0.1-1.3-0.1
	C198.9,126.6,196.7,129.6,196.7,132.9c0,1.8,1,3.1,2.5,3.5C197.7,136,196.8,134.7,196.7,132.9z M200.8,136.6
	c3.3-0.3,5.7-3.1,5.6-6.6c0-1.8-1-3.2-2.8-3.6c-0.4-0.1-0.8-0.1-1.3-0.1c-3.4,0.3-5.7,3.3-5.6,6.6c0,1.8,1,3.1,2.5,3.5
	C199.7,136.6,200.2,136.6,200.8,136.6z M202,128.5c1.1-0.1,1.5,0.8,1.5,1.7c0,1.6-0.8,4-2.3,4.1c-1,0.1-1.6-0.6-1.6-1.7
	C199.6,131.1,200.4,128.6,202,128.5z M222.5,130.6c0-2.9,2-6.2,5.5-6.5c0.5,0,0.9,0,1.3,0.1c-0.4-0.1-0.9-0.1-1.3-0.1
	C224.5,124.4,222.5,127.6,222.5,130.6c0,1.9,0.8,3.2,2.4,3.6C223.4,133.7,222.5,132.5,222.5,130.6z M227.4,132
	c1-0.1,1.9-0.4,2.7-0.8l0,0C229.3,131.6,228.4,131.9,227.4,132c-0.4,0-0.8,0-1.1-0.1C226.6,132,227,132,227.4,132z M225.2,130.5
	c3.9-0.2,6.2-1.3,6.2-3.8c0-1.3-0.8-2.2-2-2.5c-0.4-0.1-0.9-0.1-1.3-0.1c-3.5,0.3-5.5,3.6-5.5,6.5c0,1.9,0.8,3.2,2.4,3.6
	c0.5,0.1,1.1,0.2,1.8,0.1c1.1-0.1,2.5-0.4,3.6-1.1l-0.2-2c-0.8,0.4-1.6,0.8-2.7,0.8c-0.4,0-0.8,0-1.1-0.1s-0.6-0.3-0.8-0.5
	C225.3,131.2,225.2,130.7,225.2,130.5z M227.7,126.2c0.6-0.1,1,0.2,1.1,0.7c0,0.9-1.1,1.3-3.3,1.5
	C225.6,127.5,226.4,126.3,227.7,126.2z M216.9,132.4c0.3-1.1,0.6-2.1,1-3.3l1.6-4.2l2.8-0.2l0,0l-2.8,0.2l-1.6,4.2
	C217.6,130.3,217.2,131.3,216.9,132.4L216.9,132.4L216.9,132.4L216.9,132.4z M214.7,128.6L214.7,128.6c0,1.1,0,2.1,0.1,3.1l0.3,3.3
	l0,0l-0.3-3.3C214.8,130.7,214.8,129.8,214.7,128.6z"/>
<polygon class="st1" points="211.2,125.8 211.2,125.8 208.3,126 209.4,135.6 209.4,135.6 208.3,126 "/>
<path class="st1" d="M211.2,132.9c0.3-1.1,0.7-2.1,1.1-3.1l1.8-4.4l2.3-0.2l0,0l-2.3,0.2l-1.8,4.4
	C212,130.9,211.6,131.9,211.2,132.9L211.2,132.9L211.2,132.9L211.2,132.9z M222.4,124.8l-2.8,0.2l-1.6,4.2c-0.4,1.2-0.7,2.2-1,3.3
	h-0.1l0,0l0,0c0-1.1,0-2-0.1-3.1l-0.3-4l-2.3,0.2l-1.8,4.4c-0.4,1-0.8,2-1.1,3.1l0,0l0,0l0,0c0-1.1,0.1-2,0-3.1l-0.1-4.1l-2.9,0.3
	l1.1,9.6l2.7-0.2l1.6-3.6c0.4-0.9,0.6-1.7,1.1-3.1l0,0l0,0l0,0c0,1.1,0,2.1,0.1,3.1l0.3,3.3l2.6-0.2L222.4,124.8z M234,123.8
	l2.4-0.2l0,0L234,123.8c-0.1,0.8-0.2,2.5-0.4,4l-1,5.8l0,0l1-5.8C233.8,126.2,233.9,124.6,234,123.8z M236.4,125.5
	c0.7-1.3,1.7-2.3,3-2.5c0.2,0,0.3,0,0.5,0l0,0c-0.2,0-0.4,0-0.5,0C238.1,123.2,237.1,124.2,236.4,125.5L236.4,125.5L236.4,125.5
	L236.4,125.5z M236,129.6c0.3-1.9,1.1-3.6,2.9-3.8c0.2,0,0.3,0,0.5,0l0.5-2.8c-0.2,0-0.3,0-0.5,0c-1.3,0.1-2.4,1.1-3,2.5h-0.1l0,0
	l0,0c0.1-0.7,0.1-1.3,0.1-2l-2.4,0.2c-0.1,0.8-0.2,2.5-0.4,4l-1,5.8l2.8-0.2L236,129.6z M321.3,115.3L321.3,115.3
	c-0.2-0.1-0.4-0.2-0.7-0.2C320.9,115.1,321.1,115.2,321.3,115.3z M316.4,124c1.1-0.1,2.1-0.7,2.1-1.7c0-0.8-0.6-1.2-1.8-1.7
	c-1.4-0.6-2.8-1.6-2.8-3.3c0-2.7,2.2-4.5,5.1-4.8c1-0.1,1.8,0,2.3,0.1c-0.6-0.1-1.3-0.2-2.3-0.1c-2.9,0.3-5.2,2.1-5.1,4.8
	c0,1.7,1.4,2.6,2.8,3.3c1.2,0.5,1.8,1,1.8,1.7C318.5,123.3,317.5,123.9,316.4,124c-0.6,0.1-1.2,0-1.7-0.1
	C315.2,124,315.8,124,316.4,124z M313.3,123.4L313.3,123.4l-0.9,2.4c0.2,0.2,0.6,0.3,1,0.4c-0.4-0.1-0.8-0.3-1-0.4L313.3,123.4z
	 M316.2,126.4c2.9-0.3,5.4-2,5.3-5c0-1.6-1.1-2.6-2.7-3.3c-1.1-0.5-1.9-1-2-1.7c0-0.7,0.7-1.4,2-1.6c0.7-0.1,1.3,0,1.8,0.1
	c0.3,0.1,0.5,0.2,0.7,0.2l0.8-2.4c-0.2-0.1-0.5-0.2-0.8-0.3c-0.6-0.1-1.3-0.2-2.3-0.1c-2.9,0.3-5.2,2.1-5.1,4.8
	c0,1.7,1.4,2.6,2.8,3.3c1.2,0.5,1.8,1,1.8,1.7c0,1-1,1.6-2.1,1.7c-0.6,0.1-1.2,0-1.7-0.1s-1-0.3-1.4-0.5l-0.9,2.4
	c0.2,0.1,0.6,0.3,1,0.4C314.1,126.4,315,126.5,316.2,126.4z M383.5,116c0-2.9,1.3-5.6,3.1-7.1c1.4-1.3,3.3-2.1,5.2-2.3
	c0.5-0.1,0.8-0.1,1.1-0.1l0,0c-0.3,0-0.6,0-1.1,0.1c-1.9,0.3-3.8,1.1-5.2,2.3C384.8,110.5,383.4,113.1,383.5,116
	c0,2.1,1,3.7,2.9,4.1C384.4,119.7,383.5,118.1,383.5,116z M389.5,111.2c0.2,0,0.5,0,0.7,0C390,111.1,389.7,111.1,389.5,111.2
	c-1,0.1-1.9,0.5-2.6,1.2l0,0C387.6,111.7,388.5,111.3,389.5,111.2z M390.4,111.2c0.2,0,0.3,0.1,0.5,0.1
	C390.7,111.3,390.5,111.2,390.4,111.2z M387.8,120.2c3-0.3,5.1-2.9,5-5.7c0-1.6-0.8-2.8-2-3.2c-0.1,0-0.3-0.1-0.5-0.1
	c-0.1,0-0.1,0-0.2,0c-0.2,0-0.4,0-0.7,0c-1,0.1-1.9,0.5-2.6,1.2l0,0l0,0l0,0c0.6-1.6,2.1-3,4.5-3.4c0.4-0.1,0.7-0.1,1.1-0.1l0.4-2.3
	c-0.3,0-0.6,0-1.1,0.1c-1.9,0.3-3.8,1.1-5.2,2.3c-1.7,1.6-3.1,4.2-3.1,7.1c0,2.1,1,3.7,2.9,4.1C386.8,120.2,387.3,120.2,387.8,120.2
	z M386.2,116.1c0-0.2,0-0.4,0-0.7c0-0.2,0.1-0.5,0.2-0.7c0.4-0.7,1-1.3,1.8-1.3c0.9-0.1,1.6,0.5,1.6,1.6c0,1.2-0.7,2.8-2,2.9
	C386.8,118,386.3,117.2,386.2,116.1z M372.7,113.3c0-2.8,2.2-5.4,5.1-5.6c0.5,0,1,0,1.4,0.1c-0.4-0.1-0.9-0.1-1.4-0.1
	C374.9,108,372.6,110.6,372.7,113.3c0,1.6,0.8,2.7,2.1,3C373.5,116,372.7,114.9,372.7,113.3z M374,119c0.9-0.2,1.8-0.5,2.5-1
	c0.9-0.7,1.6-1.5,2-2.5l0,0l0,0l0,0c-0.4,1-1.1,1.9-2,2.5C375.8,118.5,374.9,118.8,374,119c-0.5,0.1-0.9,0.1-1.2,0.1l-0.3,2.4l0,0
	l0.3-2.4C373.2,119.1,373.5,119,374,119z M378.8,119.2c1.7-1.5,3.2-4.3,3.1-7.3c0-2.1-0.9-3.7-2.8-4.1c-0.4-0.1-0.9-0.1-1.4-0.1
	c-2.9,0.3-5.1,2.8-5.1,5.6c0,1.6,0.8,2.7,2.1,3c0.4,0.1,0.9,0.2,1.4,0.1c0.9-0.1,1.8-0.5,2.4-1.1l0,0l0,0l0,0c-0.4,1-1.1,1.9-2,2.5
	c-0.7,0.5-1.6,0.9-2.5,1c-0.5,0.1-0.9,0.1-1.2,0.1l-0.3,2.4c0.4,0,0.7,0,1.5-0.1C375.7,121.1,377.5,120.3,378.8,119.2z M377.1,114.3
	c-0.9,0.1-1.5-0.5-1.5-1.6c0-1.3,0.9-2.7,2-2.8c1.1-0.1,1.6,0.7,1.6,1.7c0,0.3,0,0.8-0.1,1c-0.1,0.3-0.1,0.5-0.3,0.6
	C378.4,113.8,377.8,114.3,377.1,114.3z"/>
<polygon class="st1" points="368.6,108.8 370.9,108.6 370.9,108.6 368.6,108.8 365.1,110.6 365.2,112.8 365.2,112.8 365.1,110.6 "/>
<polygon class="st1" points="367.7,111.5 366,121.9 366,121.9 "/>
<polygon class="st1" points="370.9,108.6 368.6,108.8 365.1,110.6 365.2,112.8 367.7,111.5 367.7,111.5 367.7,111.5 367.7,111.5 
	366,121.9 368.7,121.6 "/>
<polygon class="st1" points="327.5,115.6 327.5,115.6 324.6,115.8 323,125.6 323,125.6 324.7,115.8 "/>
<polygon class="st1" points="327.5,115.6 324.7,115.8 323,125.6 325.8,125.4 "/>
<path class="st1" d="M394.7,114.9c-0.1-4.1,1.9-8.8,5.9-9.2c0.5,0,1,0,1.4,0.1c-0.4-0.1-0.8-0.1-1.4-0.1
	C396.6,106.1,394.6,110.9,394.7,114.9c0,2.1,0.7,3.8,2.4,4.2C395.4,118.7,394.7,117,394.7,114.9z M398.5,119.2
	c4-0.4,5.9-5.4,5.8-9.4c0-1.9-0.7-3.6-2.4-4c-0.4-0.1-0.8-0.1-1.4-0.1c-3.9,0.3-5.9,5.1-5.9,9.2c0,2.1,0.7,3.8,2.4,4.2
	C397.5,119.2,398,119.3,398.5,119.2z M400.2,108c1.1-0.1,1.2,1.2,1.3,2.1c0,1.7-0.8,6.7-2.7,6.8c-1.1,0.1-1.3-1.2-1.3-2.2
	C397.4,112.9,398.4,108.2,400.2,108z M325,113.2c0-1,0.7-1.7,1.6-1.8c0.2,0,0.4,0,0.6,0c-0.2-0.1-0.4-0.1-0.6,0
	C325.7,111.5,325,112.2,325,113.2c0,0.6,0.3,1.1,0.8,1.2C325.3,114.2,325,113.8,325,113.2z M326.4,114.4c0.9-0.1,1.7-0.7,1.6-1.7
	c0-0.6-0.3-1.1-0.9-1.2c-0.2,0-0.4-0.1-0.6,0c-0.9,0.1-1.6,0.8-1.6,1.8c0,0.6,0.3,1.1,0.8,1.2C326,114.4,326.2,114.5,326.4,114.4
	L326.4,114.4z M330.3,115.3l2.5-0.2l0,0L330.3,115.3c-0.1,0.9-0.3,1.9-0.5,3.2l-1.1,6.6l0,0l1.1-6.6
	C330,117.3,330.1,116.2,330.3,115.3z M335.6,118.1c0-0.5-0.1-0.9-0.5-1C335.4,117.2,335.5,117.6,335.6,118.1c0,0.4,0,0.7-0.1,1.1
	l-0.9,5.4l0,0l0.9-5.4C335.5,118.8,335.6,118.4,335.6,118.1z M332.6,116.7c0.9-1.3,2.1-2,3.3-2.1c0.4,0,0.7,0,1,0.1
	c-0.3-0.1-0.7-0.1-1.1-0.1C334.7,114.7,333.5,115.4,332.6,116.7L332.6,116.7L332.6,116.7L332.6,116.7z M338.4,118.7
	c0.1-0.5,0.1-1.2,0.1-1.6c0-1.3-0.5-2.1-1.5-2.3c-0.3-0.1-0.7-0.1-1-0.1c-1.3,0.1-2.4,0.8-3.3,2.1l0,0l0,0l0,0l0.2-1.6l-2.5,0.2
	c-0.1,0.9-0.2,1.9-0.5,3.2l-1.1,6.6l2.8-0.2l0.7-4.4c0.4-2.2,1.4-3.4,2.3-3.5c0.2,0,0.3,0,0.5,0c0.4,0.1,0.5,0.5,0.5,1
	c0,0.4,0,0.7-0.1,1.1l-0.9,5.4l2.8-0.2L338.4,118.7z M354.1,120.9c1-0.1,1.9-0.4,2.7-0.8l0,0C356,120.5,355.1,120.8,354.1,120.9
	c-0.4,0-0.8,0-1.1-0.1C353.3,120.9,353.7,120.9,354.1,120.9z M349.2,119.4c0-2.9,2-6.2,5.5-6.5c0.5,0,0.9,0,1.3,0.1
	c-0.4-0.1-0.9-0.1-1.3-0.1C351.2,113.3,349.2,116.5,349.2,119.4c0,1.9,0.8,3.2,2.4,3.6C350.1,122.6,349.2,121.3,349.2,119.4z
	 M351.9,119.3c3.9-0.2,6.2-1.3,6.2-3.8c0-1.3-0.8-2.2-2-2.5c-0.4-0.1-0.9-0.1-1.3-0.1c-3.5,0.3-5.5,3.6-5.5,6.5
	c0,1.9,0.8,3.2,2.4,3.6c0.5,0.1,1.1,0.2,1.8,0.1c1.1-0.1,2.5-0.4,3.6-1.1l-0.2-2c-0.8,0.4-1.6,0.8-2.7,0.8c-0.4,0-0.8,0-1.1-0.1
	c-0.3-0.1-0.6-0.3-0.8-0.5C352,120,351.9,119.6,351.9,119.3z M354.4,115.1c0.6-0.1,1,0.2,1.1,0.7c0,0.9-1.1,1.3-3.3,1.5
	C352.3,116.3,353.1,115.2,354.4,115.1z M347.8,116.1L347.8,116.1c-0.1,0-0.2-0.1-0.3-0.1C347.6,116,347.7,116,347.8,116.1z
	 M340.3,120.3c-0.1-3.4,2.5-6.4,6.2-6.7c0.8-0.1,1.5,0,2,0.1l0,0c-0.4-0.1-1.1-0.2-2-0.1C342.8,114,340.2,116.9,340.3,120.3
	c0,1.9,1,3.1,2.5,3.5C341.3,123.4,340.3,122.2,340.3,120.3z M345.2,121.6c0.8-0.1,1.4-0.3,1.9-0.6l0,0
	C346.6,121.3,346,121.5,345.2,121.6c-0.3,0-0.5,0-0.7-0.1C344.7,121.6,344.9,121.6,345.2,121.6z M346.5,113.7
	c-3.7,0.3-6.2,3.2-6.2,6.7c0,1.9,1,3.1,2.5,3.5c0.5,0.1,1,0.2,1.6,0.1c1.1-0.1,2.1-0.4,2.7-0.8l-0.1-2.1c-0.5,0.2-1.1,0.5-1.9,0.6
	c-0.3,0-0.5,0-0.7-0.1c-0.7-0.2-1.2-0.8-1.2-1.8c0-1.8,1.2-3.6,3.2-3.8c0.4,0,0.8,0,1,0.1c0.1,0,0.2,0,0.3,0.1l0.7-2.3
	C348,113.7,347.3,113.6,346.5,113.7z"/>
<path class="st2" d="M300.6,125.5c0.8-0.1,1.8-1,2.2-2.9l0.5-2.6c-0.2-0.2-0.7-0.3-1.1-0.2c-1.7,0.1-2.9,2.2-2.8,4.1
	C299.3,125,299.8,125.6,300.6,125.5z M292.4,121.3c0-0.5-0.4-0.8-1.1-0.7c-1.3,0.1-2.1,1.3-2.2,2.2
	C291.3,122.6,292.4,122.2,292.4,121.3z M379,112.7c0.1-0.3,0.1-0.7,0.1-1c0-1-0.5-1.8-1.6-1.7c-1.1,0.1-2,1.5-2,2.8
	c0,1,0.6,1.7,1.5,1.6c0.8-0.1,1.4-0.5,1.7-1C378.9,113.2,379,113,379,112.7z M387.9,118c1.4-0.1,2.1-1.7,2-2.9
	c0-1.1-0.7-1.7-1.6-1.6c-0.8,0.1-1.4,0.6-1.8,1.3c-0.1,0.2-0.2,0.5-0.2,0.7c0,0.3,0,0.5,0,0.7C386.3,117.2,386.8,118,387.9,118z
	 M355.4,115.8c0-0.5-0.4-0.8-1.1-0.7c-1.3,0.1-2.1,1.3-2.2,2.2C354.4,117.1,355.5,116.7,355.4,115.8z M398.8,116.9
	c1.9-0.2,2.8-5.1,2.7-6.8c0-0.9-0.2-2.2-1.3-2.1c-1.9,0.2-2.8,4.9-2.8,6.8C397.5,115.7,397.6,117,398.8,116.9z M251.8,129.7
	c0.8-0.1,1.6-0.5,2.2-1.2c1-1.1,1.6-3.4,1.5-4.9c0-1.7-0.6-3.2-2.7-3c-0.9,0.1-1.7,0.5-2.3,1.2c-1,1.1-1.6,3.3-1.6,4.9
	C249,128.6,249.8,129.9,251.8,129.7z M201.2,134.3c1.5-0.1,2.4-2.5,2.3-4.1c0-0.9-0.4-1.8-1.5-1.7c-1.6,0.1-2.4,2.6-2.4,4.1
	C199.7,133.7,200.2,134.4,201.2,134.3z M228.7,126.9c0-0.5-0.4-0.8-1.1-0.7c-1.3,0.1-2.1,1.3-2.2,2.2
	C227.7,128.2,228.8,127.8,228.7,126.9z M423.7,97.8L423.7,97.8l-253,22.2c-9.9,9.4-23.4,15.1-38.3,14.9c-4.6,0-9-0.7-13.3-1.7
	c9.6,9.2,26.7,13.6,50.4,11.6l241.4-21.2C412.6,112.5,417.2,104,423.7,97.8z M182.3,135.7c0.7-0.1,1.1-0.2,1.4-0.4l0.5-2.9l-2.1,0.2
	l0.4-2.3l4.8-0.4l-1.2,7.1c-1,0.4-2.6,1-4.3,1.1c-1.8,0.2-3.3-0.2-4.4-1.1c-1.1-0.8-1.7-2.3-1.7-4c0-2.5,0.9-4.7,2.6-6.3
	c1.5-1.4,3.5-2.2,5.8-2.4c1.7-0.2,3,0.1,3.5,0.3l-0.8,2.5c-0.6-0.2-1.6-0.4-2.8-0.3c-1.3,0.1-2.5,0.6-3.3,1.4
	c-1.1,1-1.9,2.7-1.9,4.5C178.9,134.9,180.2,135.9,182.3,135.7z M195.7,129.7c-0.1,0-0.3,0-0.5,0c-1.8,0.2-2.6,1.9-2.9,3.8l-0.6,3.7
	l-2.8,0.2l1-5.8c0.3-1.5,0.3-3.1,0.4-4l2.5-0.2c0,0.7-0.1,1.3-0.1,2h0.1c0.7-1.3,1.7-2.3,3-2.5c0.2,0,0.4,0,0.5,0L195.7,129.7z
	 M200.8,136.6c-2.4,0.2-4.1-1.2-4.1-3.7c-0.1-3.3,2.2-6.3,5.6-6.6c2.6-0.2,4.1,1.4,4.1,3.6C206.5,133.5,204.2,136.3,200.8,136.6z
	 M217.8,134.8l-2.7,0.2l-0.3-3.3c-0.1-1-0.1-1.9-0.1-3.1l0,0c-0.5,1.4-0.7,2.1-1.1,3.1l-1.6,3.6l-2.7,0.2l-1.1-9.6l2.9-0.3l0.1,4.1
	c0,1.1,0,2,0,3.1l0,0c0.3-1.1,0.7-2.1,1.1-3.1l1.8-4.4l2.3-0.2l0.3,4c0.1,1.1,0.1,2.1,0.1,3.1h0.1c0.3-1.1,0.6-2.1,1-3.3l1.6-4.2
	l2.8-0.2L217.8,134.8z M225.2,130.5c0,0.3,0.1,0.7,0.3,1c0.4,0.5,1,0.7,1.9,0.6c1-0.1,1.9-0.4,2.7-0.8l0.2,2c-1.1,0.7-2.5,1-3.6,1.1
	c-2.7,0.2-4.2-1.2-4.2-3.7c0-2.9,2-6.2,5.5-6.5c1.9-0.2,3.4,0.8,3.4,2.6C231.4,129.1,229.1,130.2,225.2,130.5z M239.4,125.8
	c-0.1,0-0.3,0-0.5,0c-1.8,0.2-2.6,1.9-2.9,3.8l-0.6,3.7l-2.8,0.2l1-5.8c0.3-1.5,0.3-3.1,0.4-4l2.5-0.2c0,0.7-0.1,1.3-0.1,2h0.1
	c0.7-1.3,1.7-2.3,3-2.5c0.2,0,0.4,0,0.5,0L239.4,125.8z M256.2,129.8c-1.2,1.3-2.9,2.2-4.9,2.3c-3.4,0.3-5.4-2-5.4-5.1
	c0-2.4,0.8-4.9,2.3-6.5c1.2-1.3,2.9-2.2,4.8-2.3c3.5-0.3,5.4,1.9,5.4,5.1C258.5,125.7,257.7,128.2,256.2,129.8z M269.9,130.3
	l-2.7,0.2l-0.3-3.3c-0.1-1-0.1-1.9-0.1-3.1l0,0c-0.5,1.4-0.7,2.1-1.1,3.1l-1.6,3.6l-2.7,0.2l-1.1-9.6l2.9-0.3l0.1,4.1
	c0,1.1,0,2,0,3.1l0,0c0.3-1.1,0.7-2.1,1.1-3.1l1.8-4.4l2.3-0.2l0.3,4c0.1,1.1,0.1,2.1,0.1,3.1h0.1c0.3-1.1,0.6-2.1,1-3.3l1.6-4.2
	l2.8-0.2L269.9,130.3z M284.2,123.4l-1,5.7l-2.8,0.2l0.9-5.4c0.1-0.3,0.1-0.7,0.1-1.1c0-0.7-0.3-1.1-1-1.1c-0.9,0.1-2,1.3-2.3,3.5
	l-0.7,4.4l-2.8,0.2l1.1-6.6c0.2-1.2,0.4-2.3,0.5-3.2l2.5-0.2l-0.2,1.6l0,0c0.9-1.3,2.1-2,3.3-2.1c1.6-0.1,2.5,0.8,2.5,2.4
	C284.3,122.2,284.2,122.9,284.2,123.4z M288.8,124.9c0,0.3,0.1,0.7,0.3,1c0.4,0.5,1,0.7,1.9,0.6c1-0.1,1.9-0.4,2.7-0.8l0.2,2
	c-1.1,0.7-2.5,1-3.6,1.1c-2.7,0.2-4.2-1.2-4.2-3.7c0-2.9,2-6.2,5.5-6.5c1.9-0.2,3.4,0.8,3.4,2.6
	C295.1,123.5,292.7,124.6,288.8,124.9z M305.4,123.4c-0.2,1.2-0.4,2.6-0.4,3.8l-2.6,0.2l0.1-1.6l0,0c-0.8,1.4-2,2-3.1,2.1
	c-1.6,0.1-3-1-3-3.4c-0.1-3.4,2.3-6.7,5.9-7c0.4,0,0.9,0,1.3,0.1l0.8-4.4l2.8-0.2L305.4,123.4z M318.8,118.2
	c1.6,0.7,2.7,1.7,2.7,3.3c0,3-2.4,4.7-5.3,5c-1.8,0.1-3.2-0.2-3.8-0.6l0.9-2.4c0.8,0.4,1.9,0.7,3.1,0.6c1.1-0.1,2.1-0.7,2.1-1.7
	c0-0.8-0.6-1.2-1.8-1.7c-1.4-0.6-2.8-1.6-2.8-3.3c0-2.7,2.2-4.5,5.1-4.8c1.6-0.1,2.6,0.1,3.1,0.4l-0.8,2.4c-0.4-0.2-1.4-0.5-2.5-0.4
	c-1.3,0.1-2,0.8-2,1.6C316.8,117.2,317.7,117.7,318.8,118.2z M325.8,125.4l-2.8,0.2l1.7-9.8l2.8-0.2L325.8,125.4z M326.4,114.4
	L326.4,114.4c-0.8,0.1-1.4-0.4-1.4-1.3c0-1,0.7-1.7,1.6-1.8c0.8-0.1,1.4,0.4,1.5,1.3C328.1,113.7,327.3,114.4,326.4,114.4z
	 M338.4,118.7l-1,5.7l-2.8,0.2l0.9-5.4c0.1-0.3,0.1-0.7,0.1-1.1c0-0.7-0.3-1.1-1-1.1c-0.9,0.1-2,1.3-2.3,3.5l-0.7,4.4l-2.8,0.2
	l1.1-6.6c0.2-1.2,0.4-2.3,0.5-3.2l2.5-0.2l-0.2,1.6l0,0c0.9-1.3,2.1-2,3.3-2.1c1.6-0.1,2.5,0.8,2.5,2.4
	C338.5,117.5,338.4,118.2,338.4,118.7z M347.8,116.1c-0.3-0.1-0.7-0.2-1.3-0.1c-2,0.2-3.2,2-3.2,3.8c0,1.3,0.9,1.9,1.9,1.8
	c0.8-0.1,1.4-0.3,1.9-0.6l0.1,2.2c-0.6,0.3-1.6,0.7-2.7,0.8c-2.4,0.2-4.1-1.1-4.1-3.6c-0.1-3.4,2.5-6.4,6.2-6.7c0.8-0.1,1.5,0,2,0.1
	L347.8,116.1z M351.9,119.3c0,0.3,0.1,0.7,0.3,1c0.4,0.5,1,0.7,1.9,0.6c1-0.1,1.9-0.4,2.7-0.8l0.2,2c-1.1,0.7-2.5,1-3.6,1.1
	c-2.7,0.2-4.2-1.2-4.2-3.7c0-2.9,2-6.2,5.5-6.5c1.9-0.2,3.4,0.8,3.4,2.6C358.1,118,355.8,119.1,351.9,119.3z M368.7,121.6l-2.7,0.2
	l1.7-10.3l0,0l-2.5,1.3l-0.1-2.2l3.5-1.9l2.3-0.2L368.7,121.6z M378.8,119.2c-1.3,1.2-3.1,1.9-4.8,2.1c-0.7,0.1-1.1,0.1-1.5,0.1
	l0.3-2.4c0.3,0,0.7,0,1.2-0.1c0.9-0.2,1.8-0.5,2.5-1c0.9-0.7,1.6-1.5,2-2.5l0,0c-0.6,0.7-1.6,1.1-2.4,1.1c-2,0.2-3.4-1.1-3.5-3.2
	c0-2.8,2.2-5.4,5.1-5.6c2.8-0.2,4.2,1.6,4.2,4.1C382,114.9,380.5,117.6,378.8,119.2z M387.8,120.2c-2.9,0.3-4.3-1.6-4.3-4.1
	c0-2.9,1.3-5.6,3.1-7.1c1.4-1.3,3.3-2.1,5.2-2.3c0.5-0.1,0.8-0.1,1.1-0.1l-0.4,2.3c-0.3,0-0.6,0.1-1.1,0.1c-2.3,0.4-3.8,1.8-4.5,3.4
	l0,0c0.7-0.7,1.6-1.1,2.6-1.2c1.9-0.2,3.3,1.2,3.3,3.3C392.9,117.2,390.8,119.9,387.8,120.2z M398.5,119.2c-2.7,0.2-3.7-1.7-3.8-4.3
	c-0.1-4.1,1.9-8.8,5.9-9.2c2.7-0.2,3.7,1.8,3.7,4.1C404.3,113.8,402.5,118.9,398.5,119.2z"/>
</svg>
